<svg xmlns="http://www.w3.org/2000/svg" xmlns:xlink="http://www.w3.org/1999/xlink" width="226.78" height="37.53" viewBox="0 0 226.78 37.53"><defs><path id="yqvbe" d="M525 4252h26v-7h-26z"/><path id="yqvba" d="M409 4245.2h30.61v36.07H409z"/><path id="yqvbg" d="M426.15 4252c3 0 4.05 2.05 4.05 3.8 0 .8-.29 3.4-4.05 3.4h-10.49v-7.2zm-17.15-6.8v36.07h6.66V4266h5.91l10.19 15.28h7.85s-10.13-14.52-10.73-15.6c5.14-1.01 7.98-4.47 7.98-9.86 0-6.74-4.09-10.61-11.23-10.61z"/><path id="yqvbh" d="M505 4251.8c2.67 0 3.87 1.9 3.87 3.78 0 2.18-1.45 3.47-3.87 3.47h-11.4v-7.26zm1.18 13.99c2.6 0 4.47 1.8 4.47 4.29 0 2.54-2 4.6-4.47 4.6h-12.59v-8.9zm-19.09-20.56v36.01h19.75c5.98 0 10.32-4.62 10.32-11 0-4-1.88-7.08-5.16-8.6 2.18-1.4 3.37-3.7 3.37-6.56 0-6.8-4.87-9.85-9.7-9.85z"/><path id="yqvbb" d="M559.38 4244.47h34.28V4282h-34.28z"/><path id="yqvbj" d="M587.81 4256.7l-.28-.42c-2.28-3.33-5.31-5.02-9.03-5.02-6.36 0-11.73 5.48-11.73 11.97 0 6.5 5.37 11.97 11.73 11.97 3.68 0 6.84-1.66 9.14-4.8l.29-.39 5.73 4.19-.32.4c-3.8 4.84-8.94 7.4-14.84 7.4-10.72 0-19.12-8.24-19.12-18.77 0-10.52 8.4-18.76 19.12-18.76 5.9 0 11.03 2.56 14.84 7.4l.32.4z"/><path id="yqvbc" d="M441.97 4244.47h38.25V4282h-38.25z"/><path id="yqvbl" d="M472.92 4263.23c0 6.54-5.42 12.06-11.82 12.06-6.41 0-11.83-5.52-11.83-12.06 0-6.53 5.42-12.05 11.83-12.05 6.4 0 11.82 5.52 11.82 12.05zM461.1 4282c10.72 0 19.12-8.25 19.12-18.77s-8.4-18.76-19.12-18.76c-10.73 0-19.13 8.24-19.13 18.76 0 10.52 8.4 18.77 19.13 18.77z"/><path id="yqvbd" d="M597.53 4244.47h38.25V4282h-38.25z"/><path id="yqvbn" d="M628.48 4263.23c0 6.54-5.42 12.06-11.82 12.06-6.41 0-11.83-5.52-11.83-12.06 0-6.53 5.42-12.05 11.83-12.05 6.4 0 11.82 5.52 11.82 12.05zM616.66 4282c10.72 0 19.12-8.25 19.12-18.77s-8.4-18.76-19.12-18.76c-10.73 0-19.13 8.24-19.13 18.76 0 10.52 8.4 18.77 19.13 18.77z"/><path id="yqvbo" d="M551.59 4266.72v-7.14H525.4v21.73h26.18v-7.14h-19.72v-7.45z"/><clipPath id="yqvbf"><use xlink:href="#yqvba"/></clipPath><clipPath id="yqvbi"><use xlink:href="#yqvbb"/></clipPath><clipPath id="yqvbk"><use xlink:href="#yqvbc"/></clipPath><clipPath id="yqvbm"><use xlink:href="#yqvbd"/></clipPath></defs><g><g transform="translate(-409 -4244.47)"><g><use fill="#00a2b7" xlink:href="#yqvbe"/></g><g><g><g/><g clip-path="url(#yqvbf)"><use fill="#3c312d" xlink:href="#yqvbg"/></g></g><g><use fill="#3c312d" xlink:href="#yqvbh"/></g><g><g/><g clip-path="url(#yqvbi)"><use fill="#3c312d" xlink:href="#yqvbj"/></g></g><g><g/><g clip-path="url(#yqvbk)"><use fill="#3c312d" xlink:href="#yqvbl"/></g></g><g><g/><g clip-path="url(#yqvbm)"><use fill="#3c312d" xlink:href="#yqvbn"/></g></g><g><use fill="#3c312d" xlink:href="#yqvbo"/></g></g></g></g></svg>