<svg xmlns="http://www.w3.org/2000/svg" xmlns:xlink="http://www.w3.org/1999/xlink" width="152.78" height="75.85" viewBox="0 0 152.78 75.85"><defs><path id="aywaa" d="M857 4051.15h105.77V4127H857z"/><path id="aywad" d="M857 4051.15h76.35v18.1h-4.9v2.64l4.9 2.01v3.92c2.2-5.72 7.26-9.2 14.1-9.2 9.29 0 15.32 6.4 15.32 16.14s-6.03 16.15-15.32 16.15c-7.18 0-12.42-3.84-14.43-10.09-.6 3.82-2.8 5.9-6.58 5.9-4.28 0-6.7-2.77-6.7-8.08v-14.92l4.43-1.83v-2.64h-15.8v2.64l4.45 1.83v15.24c0 8.26 4.24 12.04 12.96 12.04 3.16 0 5.76-.53 7.57-1.55V4127H857z"/><path id="aywab" d="M908.11 4051.15h101.67V4127H908.1z"/><path id="aywaf" d="M933.17 4099.45c-1.81 1.02-4.42 1.55-7.6 1.55-8.74 0-13-3.78-13-12.04v-15.24l-4.46-1.83v-2.64h15.85v2.64l-4.45 1.83v14.91c0 5.32 2.43 8.1 6.72 8.1 3.8 0 6-2.09 6.61-5.9 2.02 6.24 7.27 10.08 14.48 10.08 9.32 0 15.37-6.41 15.37-16.15 0-9.73-6.05-16.14-15.37-16.14-6.86 0-11.94 3.48-14.14 9.2v-3.92l-4.92-2.01v-2.64h4.91v-18.1h76.6V4127h-76.6z"/><path id="aywag" d="M939 4084.5c0-7.56 3.3-12.5 8.5-12.5s8.5 4.94 8.5 12.5-3.3 12.5-8.5 12.5-8.5-4.94-8.5-12.5"/><path id="aywah" d="M980.08 4099.75v-2.42l-4.44-1.7v-18.53l17.62 22.9h3.3v-26.87l4.44-1.7V4069h-13.08v2.42l4.44 1.7v15.78L976.9 4069H967v2.27l4.45 1.77v22.59l-4.45 1.7v2.42z"/><path id="aywai" d="M906 4069v2.67l-5 2.08V4111h-3l-23.2-31.47v26.12l5 2.08v2.67H865v-2.67l5-2.08v-31.9l-5-2.08V4069h10.94l20.25 27.1v-22.33l-5-2.1V4069z"/><clipPath id="aywac"><use xlink:href="#aywaa"/></clipPath><clipPath id="aywae"><use xlink:href="#aywab"/></clipPath></defs><g><g transform="translate(-857 -4051.15)"><g><g/><g clip-path="url(#aywac)"><use fill="#f8eb00" xlink:href="#aywad"/></g></g><g><g/><g clip-path="url(#aywae)"><use fill="#532684" xlink:href="#aywaf"/></g></g><g><use fill="#532684" xlink:href="#aywag"/></g><g><use fill="#f8eb00" xlink:href="#aywah"/></g><g><use fill="#532684" xlink:href="#aywai"/></g></g></g></svg>