<svg xmlns="http://www.w3.org/2000/svg" xmlns:xlink="http://www.w3.org/1999/xlink" width="208.64" height="58" viewBox="0 0 208.64 58"><defs><path id="cxerb" d="M1215.52 4067c1.92 0 3.48-1.6 3.48-3.5a3.5 3.5 0 1 0-3.48 3.5"/><path id="cxerc" d="M1215.52 4075a3.49 3.49 0 0 0 3.48-3.5 3.5 3.5 0 1 0-3.48 3.5"/><path id="cxerd" d="M1204 4073.5a3.5 3.5 0 1 0 6.98-.02 3.5 3.5 0 0 0-6.98.02"/><path id="cxere" d="M1225.5 4077c1.94 0 3.5-1.56 3.5-3.5s-1.56-3.5-3.5-3.5a3.49 3.49 0 0 0-3.5 3.5c0 1.94 1.56 3.5 3.5 3.5"/><path id="cxerf" d="M1227.5 4068c1.9 0 3.5-1.56 3.5-3.5s-1.6-3.5-3.5-3.5a3.49 3.49 0 0 0-3.5 3.5c0 1.94 1.56 3.5 3.5 3.5"/><path id="cxerg" d="M1204.46 4069a3.54 3.54 0 0 0 3.54-3.52 3.5 3.5 0 1 0-7 0 3.5 3.5 0 0 0 3.46 3.52"/><path id="cxerh" d="M1234.5 4073c-.66 0-1.28.16-1.83.47a3.5 3.5 0 0 0-1.67 3.03c0 1.24.66 2.37 1.67 3a3.51 3.51 0 0 0 5.33-3c0-1.94-1.56-3.5-3.5-3.5"/><path id="cxeri" d="M1238.48 4065a3.5 3.5 0 1 0 .04 7 3.5 3.5 0 0 0-.04-7"/><path id="cxerj" d="M1232.3 4081.12c-10.46-5.29-21.5-5.63-32.68-.19-.16.08-.32.15-.48.2-1.06.82-1.37 1.58-.98 2.26.2.6.79.72 1.46.53.27-.04.55-.12.82-.23 10.68-5.52 21.6-5.9 31.62.11.07 0 .15.04.23.08.47.19.94.11 1.61-.34.24-.76.04-1.36-.47-1.81-.35-.23-.75-.42-1.14-.6"/><path id="cxerk" d="M1231.52 4085.8c-8.67-6.02-18.8-6.58-30.51-.53-.9.76-1.2 1.49-.9 2.13.28.85 1.13.65 2.06.29 9.47-5.28 19.22-5.69 28.1.12.51.24.98.24 1.63-.24 0-.04 0-.08.04-.12.08-.33.08-.65 0-.97a1.83 1.83 0 0 0-.42-.69"/><path id="cxerl" d="M1202 4076.5a3.48 3.48 0 0 0-3.5-3.5c-1.9 0-3.5 1.56-3.5 3.5a3.51 3.51 0 0 0 5.4 2.96 3.48 3.48 0 0 0 1.6-2.96"/><path id="cxerm" d="M1198 4068.48c0-1.9-1.59-3.48-3.52-3.48a3.52 3.52 0 0 0-3.48 3.48 3.52 3.52 0 0 0 3.48 3.52 3.53 3.53 0 0 0 3.52-3.52"/><path id="cxern" d="M1179.8 4094.74c.4-1.51.2-2.48-.63-2.99-.83-.7-1.7-.89-2.66-.66-.2.08-.44.16-.67.27l-7.14 7.45-7.62-7.33a2.57 2.57 0 0 0-2.77 0c-.2.16-.4.27-.56.47-.87 1.16-1 2.44-.32 3.49.28.27.6.58.88.89 2.61 2.79 5.27 5.54 7.89 8.3v10.42c.67 1.4 1.59 2.05 2.7 1.94 1.42 0 2.18-.66 2.7-1.75v-10.81c1.62-1.94 3.28-3.88 4.91-5.82 1.11-1.28 2.18-2.6 3.3-3.87"/><path id="cxero" d="M1191.87 4090.1c1.24.05 1.94.8 2.13 2.18v22.47c-.3 1.5-1.2 2.25-2.67 2.25s-2.43-.71-2.9-2.02v-3.44h-7.07a415 415 0 0 0-3.75 4.99c-.42.23-.85.4-1.23.43-.74.08-1.51-.12-2.24-.6-1-.74-1.36-1.81-1-3.16 1.07-1.58 2.16-3.12 3.24-4.66 3.36-4.87 6.72-9.7 10.28-14.4.77-.99 1.5-1.98 2.32-2.93.65-1.02 1.62-1.42 2.9-1.1zm-3.59 15.79c0-1.43-.04-2.85-.04-4.27a19.46 19.46 0 0 0-3.2 4.31c.54-.04 1.08-.04 1.62-.04z"/><path id="cxerp" d="M1145.52 4091a13.5 13.5 0 1 1-13.16 16.53c-.2-1-.36-2-.36-3.05a13.48 13.48 0 0 1 13.52-13.48zm0 20.82a7.32 7.32 0 1 0 0-14.64 7.33 7.33 0 0 0 0 14.64z"/><path id="cxerq" d="M1132.68 4113.67c.03.04.03.04.03.08.43.88.35 1.73-.03 2.53-.12.28-.31.56-.5.8-.97.8-2.05.88-3.32.28-1.8-2.37-3.66-4.73-5.46-7.13-.31-.36-.62-.72-.9-1.16-.26-.48-.41-1.05-1.15-1.2-.3.15-.42.44-.27.76-.03 2.36-.11 4.72-.11 7.05-.42 1.48-1.27 2.28-2.62 2.32-1.66.04-2.7-1.08-3-3.33l-.35-16.66c.73-2.08 1.7-3.52 3-4.73a10.65 10.65 0 0 1 5.4-2.24c.07 0 .15-.04.26-.04a7.46 7.46 0 0 1 5.82 2.48c1.42 1.2 2.23 3.17 2.58 5.73a10 10 0 0 1-1.43 5.85c-.69.8-1.38 1.56-2.04 2.36 1.35 2.09 2.74 4.17 4.09 6.25zm-9.28-10.81a2.95 2.95 0 0 0 2.92-3 3.02 3.02 0 0 0-2.92-3.1 3.02 3.02 0 0 0-2.93 3.1c0 1.68 1.3 3 2.93 3z"/><path id="cxerr" d="M1295.89 4090c-1.52 0-2.59.73-2.89 2.61v22.1c.5 1.8 1.52 2.33 2.77 2.29 1.37-.04 2.55-.56 3.23-2.29v-22.26c-.46-1.72-1.44-2.52-3.11-2.44"/><path id="cxera" d="M1303.04 4090.17h20.6v26.64h-20.6z"/><path id="cxert" d="M1320.67 4090.17c-1.4.08-2.3.8-2.73 1.94v13c-2.85-4.66-5.74-9.37-8.6-14-.96-.94-2.24-1.18-3.93-.66-1.25.43-2 1.3-2.37 2.57v21.77c.08 1.43 1.04 2.06 2.97 2.02 1.49-.12 2.41-.79 2.77-2.02 0-4.54 0-9.09-.04-13.63l8.4 14.19c.64.99 1.6 1.58 3.29 1.34 1.6-.08 2.6-.95 3.2-2.37v-22.17a2.97 2.97 0 0 0-2.96-1.98"/><path id="cxeru" d="M1286.97 4090c-1.43.08-2.33.8-2.78 1.96v13.18c-2.9-4.76-5.86-9.5-8.76-14.22-.94-.92-2.3-1.16-4.01-.64a3.58 3.58 0 0 0-2.42 2.6v22.08c.08 1.44 1.06 2.08 3.03 2.04 1.51-.12 2.46-.84 2.82-2.04 0-4.61 0-9.22-.04-13.82l8.6 14.38c.61.96 1.6 1.6 3.32 1.32 1.63-.04 2.66-.92 3.27-2.37V4092a3 3 0 0 0-3.03-2"/><path id="cxerv" d="M1240.88 4108.15c-1.73 1.76-3.5 2.76-5.14 2.96-2.21.32-3.98-.08-5.14-1.12a7.93 7.93 0 0 1-3.01-4.29 9.77 9.77 0 0 1 .08-4.8 6.55 6.55 0 0 1 2.93-3.57 7.71 7.71 0 0 1 4.3-1.16c2 .08 3.65 1.04 5.1 2.16 1.48 1.05 2.64 1.05 4.01.08.92-1.24 1.16-2.52.12-4.08-.36-.56-2.13-4.17-9.6-4.33-7.47-.16-13.53 6.05-13.53 13.46 0 7.45 6.06 13.54 13.53 13.54s9.32-3.56 10.12-4.93c.57-1.32.44-2.48-.36-3.32-.92-.84-1.97-1.16-3.41-.6"/><path id="cxerw" d="M1253.35 4094.14c4.68 6.25 9.09 12.66 13.53 19.06.31 1.35 0 2.42-1 3.17-1.16.75-2.36.79-3.48.16-1.28-1.67-2.52-3.33-3.75-4.99h-7.12v3.44c-.46 1.3-1.4 2.02-2.9 2.02-1.47 0-2.36-.75-2.63-2.25v-22.47c.15-1.38.89-2.13 2.13-2.17 1.27-.32 2.2.08 2.9 1.1.77.95 1.54 1.94 2.32 2.93zm0 11.75c.5 0 1.04 0 1.58.04-.5-.91-1-1.74-1.58-2.5a35.1 35.1 0 0 0-1.59-1.81c0 1.42-.04 2.84-.04 4.27z"/><path id="cxerx" d="M1210.74 4110.56h-6.92v-18.42c-.08-2.85-5.82-2.85-5.82 0v22.33c.08.94.44 1.45 1.07 1.53h11.67c2.97-.04 3.05-5.55 0-5.44"/><clipPath id="cxers"><use xlink:href="#cxera"/></clipPath></defs><g><g transform="translate(-1115 -4060)"><g><use fill="#ec1c24" xlink:href="#cxerb"/></g><g><use fill="#ec1c24" xlink:href="#cxerc"/></g><g><use fill="#ec1c24" xlink:href="#cxerd"/></g><g><use fill="#ec1c24" xlink:href="#cxere"/></g><g><use fill="#ec1c24" xlink:href="#cxerf"/></g><g><use fill="#ec1c24" xlink:href="#cxerg"/></g><g><use fill="#ec1c24" xlink:href="#cxerh"/></g><g><use fill="#ec1c24" xlink:href="#cxeri"/></g><g><use fill="#ec1c24" xlink:href="#cxerj"/></g><g><use fill="#ec1c24" xlink:href="#cxerk"/></g><g><use fill="#ec1c24" xlink:href="#cxerl"/></g><g><use fill="#ec1c24" xlink:href="#cxerm"/></g><g><use fill="#ec1c24" xlink:href="#cxern"/></g><g><use fill="#ec1c24" xlink:href="#cxero"/></g><g><use fill="#ec1c24" xlink:href="#cxerp"/></g><g><use fill="#ec1c24" xlink:href="#cxerq"/></g><g><use fill="#ec1c24" xlink:href="#cxerr"/></g><g><g/><g clip-path="url(#cxers)"><use fill="#ec1c24" xlink:href="#cxert"/></g></g><g><use fill="#ec1c24" xlink:href="#cxeru"/></g><g><use fill="#ec1c24" xlink:href="#cxerv"/></g><g><use fill="#ec1c24" xlink:href="#cxerw"/></g><g><use fill="#ec1c24" xlink:href="#cxerx"/></g></g></g></svg>