<svg xmlns="http://www.w3.org/2000/svg" xmlns:xlink="http://www.w3.org/1999/xlink" width="127.39" height="60.47" viewBox="0 0 127.39 60.47"><defs><path id="bjo8a" d="M144 4227h127.4v60.48H144z"/><path id="bjo8c" d="M221.36 4287.46c26.16.64 48.97-22.36 50-37.7.23-3.3-.91-6.37-3.36-9.1-8.05-8.95-29.33-12.86-46.56-13.55-22.54-.89-60 3.36-72.74 15.6-3.12 3-4.7 6.37-4.7 10 0 18.82 40.84 33.87 77.36 34.75"/><path id="bjo8d" d="M235.05 4242.78c0 .85.65 2.1 1.64 2.1 1.05 0 1.98-1.73 1.98-2.6 0-.83-.96-1.65-1.75-1.65-1.28 0-1.87.96-1.87 2.15zm-2.66 10.75c0 1.22.93 2.07 1.73 2.86.03 2.86.05 6.37.53 9.17.29 1.61.68 3.57 2.75 3.57 1.27 0 1.24-2.72 1.24-3.54 0-1.92-.25-3.88-.25-5.8 0-3.45 2.57-5.77 2.57-8.78 0-2.23-1.84-3.62-3.95-3.62-1.03 0-2.38.37-2.9 1.3-.56 1-.73 2.44-1.35 3.6-.23.4-.37.8-.37 1.24z"/><path id="bjo8e" d="M221.39 4286.23c-36.05-.87-76.16-15.88-76.16-33.5 0-19.4 49.88-25.42 76.16-24.38 23.4.93 49.67 7.38 48.74 21.33-1.03 15.22-23.9 37.15-48.74 36.55"/><path id="bjo8f" d="M182.04 4264.89v-10.98c0-1.59-.56-2.72-2.34-2.72-1.79 0-2.38 1.13-2.38 2.72v10.98h-3.7v-10.98c0-1.59-.6-2.72-2.39-2.72-1.78 0-2.37 1.13-2.37 2.72v10.98h-3.71v-11.07c0-4.1 2.12-5.77 5.72-5.77 1.92 0 3.56.45 4.58 2 1.08-1.52 3.14-2 4.61-2 3.57 0 5.7 1.67 5.7 5.77v11.07z"/><path id="bjo8g" d="M197.45 4255.11h-4.76v-1.22c0-1.58.6-2.72 2.38-2.72 1.79 0 2.38 1.14 2.38 2.72zm3.71 2.92v-3.54c0-4.17-1.9-6.46-6.09-6.46-4.22 0-6.09 2.27-6.09 6.46v4.2c0 4.16 1.9 6.42 6.09 6.42 1.9 0 3.88-.2 5.75-.6v-3.11c-1.75.31-3.63.6-5.44.6-2.78 0-2.69-1.73-2.69-3.97z"/><path id="bjo8h" d="M213 4264.89v-10.98c0-1.56-.57-2.72-2.39-2.72-1.78 0-2.37 1.13-2.37 2.72v10.98h-3.71v-11.07c0-4.3 2.44-5.77 6.08-5.77 3.88 0 6.09 1.47 6.09 5.77v11.07z"/><path id="bjo8i" d="M219.94 4264.88v-3.11l6.14-10.36h-6.14v-3.11h10.27v3.11l-6.14 10.36h6.34v3.11z"/><path id="bjo8j" d="M249.42 4260.7c0-.88-.48-1.42-1.3-1.9l-2.3-1.33a4.94 4.94 0 0 1-2.6-4.56c0-3.08 2.38-4.61 5.57-4.61h3.43v3.11h-2.63c-.96 0-2.74-.03-2.74 1.3 0 .88.5 1.42 1.3 1.9l2.2 1.3a5.05 5.05 0 0 1 2.7 4.59c0 3.08-2.39 4.61-5.58 4.61a27 27 0 0 1-4.53-.4v-3.14c1.22.17 2.5.4 3.73.4.97 0 2.75.05 2.75-1.28"/><path id="bjo8k" d="M235.05 4242.78c0 .85.65 2.1 1.64 2.1 1.05 0 1.98-1.73 1.98-2.6 0-.83-.96-1.65-1.75-1.65-1.28 0-1.87.96-1.87 2.15zm-2.66 10.75c0 1.22.93 2.07 1.73 2.86.03 2.86.05 6.37.53 9.17.29 1.61.68 3.57 2.75 3.57 1.27 0 1.24-2.72 1.24-3.54 0-1.92-.25-3.88-.25-5.8 0-3.45 2.57-5.78 2.57-8.78 0-2.23-1.84-3.62-3.95-3.62-1.03 0-2.38.37-2.9 1.3-.56 1-.73 2.44-1.35 3.6-.23.4-.37.8-.37 1.24z"/><clipPath id="bjo8b"><use xlink:href="#bjo8a"/></clipPath></defs><g><g transform="translate(-144 -4227)"><g><g/><g clip-path="url(#bjo8b)"><use fill="#fdfdfd" xlink:href="#bjo8c"/></g></g><g><use fill="#ffca04" xlink:href="#bjo8d"/></g><g><use fill="#004684" xlink:href="#bjo8e"/></g><g><use fill="#fdfdfd" xlink:href="#bjo8f"/></g><g><use fill="#fdfdfd" xlink:href="#bjo8g"/></g><g><use fill="#fdfdfd" xlink:href="#bjo8h"/></g><g><use fill="#fdfdfd" xlink:href="#bjo8i"/></g><g><use fill="#fdfdfd" xlink:href="#bjo8j"/></g><g><use fill="#ffca04" xlink:href="#bjo8k"/></g></g></g></svg>