<svg xmlns="http://www.w3.org/2000/svg" xmlns:xlink="http://www.w3.org/1999/xlink" width="268" height="42" viewBox="0 0 268 42"><defs><path id="phuua" d="M439.76 4092.79c-.52 1.32-1.5 2-3 2-2.22 0-3.27-1.48-3.44-4.3h18.24c.04-.46.06-.94.06-1.43 0-7.52-4.26-11.74-9.52-11.74h-10.68c-5.26 0-9.52 4.22-9.52 11.74 0 7.5 4.26 11.74 9.52 11.74h10.68c4.31 0 7.95-2.85 9.12-8.01zm-6.4-5.62c.24-2.5 1.27-3.84 3.4-3.84s3.16 1.34 3.4 3.84zm53.41-9.85h-3.7v-6.65h-11.82v30.12h11.82v-16.53h3.7zM597.8 4108h12.8l17-30.68h-12.81l-4.59 8.28-5.28-8.28h-13l11.65 20.25zm-95.29-24.04c2.47 0 3.47 1.78 3.47 5.1 0 3.35-1.05 5.1-3.47 5.1s-3.46-1.75-3.46-5.1c0-3.32 1-5.1 3.46-5.1zm14.85-6.64h-20.19c-5.25 0-9.52 4.22-9.52 11.74 0 7.5 4.27 11.74 9.52 11.74h20.19zm124.8 6.64c2.46 0 3.47 1.78 3.47 5.1 0 3.35-1.05 5.1-3.47 5.1s-3.47-1.75-3.47-5.1c0-3.32 1-5.1 3.47-5.1zM657 4066h-11.8v11.32h-8.38c-5.26 0-9.52 4.22-9.52 11.74 0 7.5 4.26 11.74 9.52 11.74H657zm-78.94 17.96c2.47 0 3.47 1.78 3.47 5.1 0 3.35-1.05 5.1-3.47 5.1s-3.46-1.75-3.46-5.1c0-3.32 1-5.1 3.46-5.1zm5.34 16.84c5.26 0 9.52-4.23 9.52-11.74 0-7.52-4.26-11.74-9.52-11.74h-10.68c-5.25 0-9.52 4.22-9.52 11.74 0 7.5 4.27 11.74 9.52 11.74zm-35.62 0h12.75V4066h-12.75zm-93.2 0h12.75V4066h-12.75zm76.94 0h12.75V4066h-12.75zm-127.66-6.63c-2.42 0-3.47-1.76-3.47-5.1 0-3.33 1-5.11 3.47-5.11s3.47 1.78 3.47 5.1c0 3.35-1.05 5.1-3.47 5.1zM418.7 4066h-11.8v11.32h-8.38c-5.26 0-9.52 4.22-9.52 11.74 0 7.5 4.26 11.74 9.52 11.74h20.18z"/></defs><g><g clip-path="url(#clip-F79E8FE0-AAE9-4D68-B403-01FF120B5235)" transform="translate(-389 -4066)"><use fill="#00529f" xlink:href="#phuua"/></g></g></svg>