<?xml version="1.0" encoding="utf-8"?>
<!-- Generator: Adobe Illustrator 16.0.0, SVG Export Plug-In . SVG Version: 6.00 Build 0)  -->
<!DOCTYPE svg PUBLIC "-//W3C//DTD SVG 1.1//EN" "http://www.w3.org/Graphics/SVG/1.1/DTD/svg11.dtd">
<svg version="1.1" id="Layer_1" xmlns="http://www.w3.org/2000/svg" xmlns:xlink="http://www.w3.org/1999/xlink" x="0px" y="0px"
	 width="36px" height="60px" viewBox="-1 -1 36 60" enable-background="new -1 -1 36 60" xml:space="preserve">
<title>Icon_maps_pointer</title>
<desc>Created with Sketch.</desc>
<g id="Symbols">
	<g id="Icon_maps_pointer">
		<circle id="Oval-4" fill="none" stroke="#FFFFFF" stroke-width="2" cx="17.5" cy="16.5" r="5.5"/>
		<path id="Oval-2" fill="none" stroke="#FFFFFF" stroke-width="2" d="M17,48c11.334-14.418,17-24.754,17-31.01
			C34,7.607,26.389,0,17,0S0,7.607,0,16.99C0,23.246,5.667,33.582,17,48z"/>
		<path id="Oval-3" fill="none" stroke="#FFFFFF" stroke-width="2" d="M10.214,47C7.642,48.137,6,49.864,6,51.799
			C6,55.224,11.149,58,17.5,58l0,0c6.352,0,11.5-2.776,11.5-6.201c0-1.498-0.984-2.871-2.623-3.943
			c-0.434-0.283-0.914-0.547-1.435-0.785"/>
	</g>
</g>
</svg>
