<svg xmlns="http://www.w3.org/2000/svg" xmlns:xlink="http://www.w3.org/1999/xlink" width="15" height="15" viewBox="0 0 15 15"><defs><path id="yvh9a" d="M767.98 1023h-10.96c-1.12 0-2.02.9-2.02 2.02v10.96c0 1.11.9 2.02 2.02 2.02h5.4l.01-5.36h-1.39a.33.33 0 0 1-.33-.33v-1.73c0-.18.14-.33.33-.33h1.39v-1.66c0-1.94 1.18-3 2.9-3h1.43c.18 0 .32.15.32.33v1.46c0 .18-.14.33-.32.33h-.87c-.94 0-1.13.44-1.13 1.1v1.44h2.07c.2 0 .35.18.32.37l-.2 1.73a.33.33 0 0 1-.33.29h-1.85v5.36h3.2c1.13 0 2.03-.9 2.03-2.02v-10.96c0-1.12-.9-2.02-2.02-2.02"/></defs><g><g clip-path="url(#clip-E7BD5300-8EE4-4CCA-AF49-90B27A101A39)" transform="translate(-755 -1023)"><use fill="#b3a16e" xlink:href="#yvh9a"/></g></g></svg>