<svg xmlns="http://www.w3.org/2000/svg" xmlns:xlink="http://www.w3.org/1999/xlink" width="13.3" height="13.26" viewBox="0 0 13.3 13.26"><defs><path id="zz0ga" d="M769.56 1067.4h-2.72c-.1 0-.13-.03-.13-.13v-4.57c0-.35-.02-.7-.11-1.04-.12-.44-.35-.8-.78-.97a1.51 1.51 0 0 0-1.74.5c-.3.38-.37.8-.37 1.27v4.79c0 .15 0 .15-.14.15h-2.7v-8.93h2.84v1.24l.31-.42a2.66 2.66 0 0 1 1.98-1.03c.53-.04 1.04.02 1.53.21.37.14.7.36.97.64.4.39.64.86.81 1.38a5.85 5.85 0 0 1 .25 1.41z"/><path id="zz0gb" d="M756.26 1055.5c.06-.2.1-.4.19-.57.2-.4.54-.63.96-.73.39-.1.77-.09 1.14.07.52.22.82.62.89 1.19.09.63-.12 1.16-.64 1.5a1.7 1.7 0 0 1-1.36.22 1.4 1.4 0 0 1-1.01-.78c-.08-.16-.11-.35-.17-.53z"/><path id="zz0gc" d="M759.27 1067.39h-2.71c-.1 0-.13-.03-.13-.14v-8.79h2.84z"/></defs><g><g transform="translate(-756.26 -1054.14)"><g><g><use fill="#b3a06d" xlink:href="#zz0ga"/></g><g><use fill="#b3a06d" xlink:href="#zz0gb"/></g><g><use fill="#b3a06d" xlink:href="#zz0gc"/></g></g></g></g></svg>