<svg xmlns="http://www.w3.org/2000/svg" xmlns:xlink="http://www.w3.org/1999/xlink" width="18" height="13.5" viewBox="0 0 18 13.5"><defs><path id="9020a" d="M754 1085h18v13.5h-18z"/><path id="9020c" d="M772 1086.6c-.66.27-1.37.45-2.12.53a3.48 3.48 0 0 0 1.62-1.88c-.71.4-1.5.67-2.34.83a3.83 3.83 0 0 0-2.7-1.08c-2.04 0-3.7 1.53-3.7 3.4 0 .28.04.54.1.78a10.8 10.8 0 0 1-7.6-3.56 3.2 3.2 0 0 0-.5 1.72c0 1.18.65 2.22 1.64 2.83a3.92 3.92 0 0 1-1.68-.42v.04a3.5 3.5 0 0 0 2.97 3.34 3.98 3.98 0 0 1-1.67.06 3.67 3.67 0 0 0 3.45 2.37 7.82 7.82 0 0 1-5.47 1.41 11.1 11.1 0 0 0 5.66 1.53c6.8 0 10.5-5.2 10.5-9.7v-.44a7.21 7.21 0 0 0 1.84-1.76"/><clipPath id="9020b"><use xlink:href="#9020a"/></clipPath></defs><g><g transform="translate(-754 -1085)"><g/><g clip-path="url(#9020b)"><use fill="#b3a16e" xlink:href="#9020c"/></g></g></g></svg>