<svg xmlns="http://www.w3.org/2000/svg" xmlns:xlink="http://www.w3.org/1999/xlink" width="218" height="49.83" viewBox="0 0 218 49.83"><defs><path id="lochb" d="M915 4261.78V4288h5.54v-14.51c1.15.85 8.36 14 9.7 14.51h4.38c.94-.18 1.4-.97 1.38-2.34V4261h-5.77c0 3.1-.28 11.55.23 14.12-.63-.23-.41.01-1.37-1.65l-3.8-5.97c-3.6-5.77-3.13-6.42-9.6-6.42-.53 0-.69.16-.69.7"/><path id="lochc" d="M1020 4288h5.53l-.19-14.56c1.34.9 6.16 10.3 10 14.56h4.12c1.06-.14 1.45-.63 1.47-2.1.04-3.16-.5-21.56-.05-22.64.26-.87.8-.96 1.06-1.04l.06-1.22h-6.66v14.09c-.64-.48-7.4-11.45-7.57-11.61a4.96 4.96 0 0 0-4.05-2.48H1020z"/><path id="lochd" d="M967 4261.75v24.84c0 .87.93 1.25 2.19 1.41h5.65v-11.25c1.02.26.42.12 1.57 1.78l4.31 6.43c1.63 2.2 2.6 2.87 4.55 3.04H992c-.2-.84-10.02-15.15-10.54-15.94.37-.23 2.11-2.15 2.45-2.57.82-1.03 1.75-1.63 2.6-2.68.54-.67.73-.78 1.25-1.38l3.5-4.38c-8.28 0-6.69-1.03-13.06 6.26-.82.94-2.33 2.4-3.36 3.11v-9.37h-7.1c-.57 0-.74.16-.74.7"/><path id="loche" d="M874 4285.65c-.08 1.73.81 2.3 2.74 2.35h14.43c.97-.01 1.54-.58 1.74-1.64v-3.29h-9.45c-.86.05-1.39-.23-1.5-.94v-5.63h8.71v-5.17h-8.7v-5.16h10.94c0-2.76.63-4.66-1.49-5.17h-17.41z"/><path id="lochf" d="M899 4286.83c0 .76.94 1.17 1.8 1.17h6.2v-27h-8z"/><path id="lochg" d="M944 4285.65c-.08 1.73.81 2.3 2.74 2.35h14.43c.97-.01 1.54-.58 1.74-1.64v-3.29h-9.45c-.86.05-1.39-.23-1.5-.94v-5.63h8.71v-5.17h-8.7v-5.16h10.94c0-2.76.63-4.66-1.49-5.17h-17.41z"/><path id="lochh" d="M995 4285.65c-.08 1.73.81 2.3 2.74 2.35h14.43c.97-.01 1.54-.58 1.74-1.64v-3.29h-9.45c-.86.05-1.39-.23-1.5-.94v-5.63h8.71v-5.17h-8.7v-5.16h10.94c0-2.76.63-4.66-1.49-5.17h-17.41z"/><path id="lochi" d="M846.22 4263.52l-.1 23.48h7.3v-11.37h6.35l-.02 11.37H867v-26h-7.25v9.38c.03.44-.2.72-.7.69h-4.92c-.47 0-.7-.23-.7-.69V4261H845c-.12 1.75 1.26.98 1.2 2.52"/><path id="locha" d="M824 4238.17h35.96v32.6H824z"/><path id="lochk" d="M834.6 4255.53l5.34 3.85-2.1 7.05c-2.07 1.42-4.2 2.85-6.22 4.28-.78.24-.77-.39-.37-1.45l3.52-10.82-10.57-7.63c-.35-.28-.3-.72.68-.72l12.81.14 3.9-11.55c.27-.72.76-.61.98-.07l3.9 11.77h13.15c.37 0 .45.27.17.48l-6.43 4.45h-7.27l-2-5.97c-.14-.34-.36-.34-.48 0l-2.1 5.9-6.85.04c-.32-.01-.3.1-.06.25"/><clipPath id="lochj"><use xlink:href="#locha"/></clipPath></defs><g><g transform="translate(-824 -4238.17)"><g><use fill="#0b542a" xlink:href="#lochb"/></g><g><use fill="#0b542a" xlink:href="#lochc"/></g><g><use fill="#0b542a" xlink:href="#lochd"/></g><g><use fill="#0b542a" xlink:href="#loche"/></g><g><use fill="#0b542a" xlink:href="#lochf"/></g><g><use fill="#0b542a" xlink:href="#lochg"/></g><g><use fill="#0b542a" xlink:href="#lochh"/></g><g><use fill="#0b542a" xlink:href="#lochi"/></g><g><g/><g clip-path="url(#lochj)"><use fill="#ec1c24" xlink:href="#lochk"/></g></g></g></g></svg>