<svg xmlns="http://www.w3.org/2000/svg" xmlns:xlink="http://www.w3.org/1999/xlink" width="143.85" height="96.53" viewBox="0 0 143.85 96.53"><defs><path id="brg6a" d="M216.53 4062.27l3.33-15.06-15.85-5.62z"/><path id="brg6f" d="M205.72 4038.47l-11.81 21.57v-21.57z"/><path id="brg6g" d="M204.63 4043l.37-.66-1-.34z"/><path id="brg6h" d="M205 4043.8l.91 1.2 1.09-1.59-1.46-.41z"/><path id="brg6i" d="M205 4044.7l.72 1.3 1.28-2.56-1.15-.44z"/><path id="brg6j" d="M205 4046l.89 1 2.11-2.65-1.42-.35z"/><path id="brg6k" d="M206 4046.17l.76.83 2.24-2.72-1.2-.28z"/><path id="brg6l" d="M207 4047.07l.66.93 2.34-3.68-1.05-.32z"/><path id="brg6m" d="M208 4047.99l.58 1.01 2.42-4.65-.93-.35z"/><path id="brg6n" d="M208 4048.93l.52 1.07 2.48-5.63-.83-.37z"/><path id="brg6o" d="M209 4049.88l.47 1.12 2.53-6.62-.75-.38z"/><path id="brg6p" d="M210 4051.84l.58 1.16 3.42-7.6-.92-.4z"/><path id="brg6q" d="M210 4051.94l.53 1.06 3.47-7.64-.85-.36z"/><path id="brg6r" d="M211 4053.03l.61.97 4.39-7.67-.98-.33z"/><path id="brg6s" d="M211 4053.99l.57 1.01 4.43-8.65-.91-.35z"/><path id="brg6t" d="M212 4054.06l.64.94 5.36-8.68-1.03-.32z"/><path id="brg6u" d="M213 4056.02l.7.98 6.3-9.66-1.13-.34z"/><path id="brg6v" d="M213 4056.99l.68 1.01 6.21-10.25.11-.45-.94-.3z"/><path id="brg6w" d="M214 4058.01l.66.99 4.5-7.5.84-3.5z"/><path id="brg6x" d="M214 4058.95l.58 1.05 2.67-5.3.75-3.7z"/><path id="brg6y" d="M215 4060.01l.66.99 1.5-2.5.84-3.5z"/><path id="brg6z" d="M216 4061.15l.88.85 1.12-3z"/><path id="brg6B" d="M214.83 4065.4l14.73-26.92h.4v26.91z"/><path id="brg6C" d="M219 4048.1h.08l-.06-.1z"/><path id="brg6D" d="M219.26 4048l-.26 1 1-.1-.66-.9z"/><path id="brg6E" d="M219.27 4049.1l-.27.9 2-.2-.69-.8z"/><path id="brg6F" d="M219.27 4049.18l-.27.82 3-.26-.7-.74z"/><path id="brg6G" d="M218.2 4050.24l-.2.76 3-.32-.53-.68z"/><path id="brg6H" d="M218.17 4050.3l-.17.7 3-.37-.42-.63z"/><path id="brg6I" d="M218.19 4051.68L218 4053l4-.82-.47-1.18z"/><path id="brg6J" d="M218.16 4052.76L218 4054l4-.89-.4-1.11z"/><path id="brg6K" d="M218.17 4053.84L218 4055l5-.96-.44-1.04z"/><path id="brg6L" d="M218.19 4054.9l-.19 1.1 6-1.01-.47-.99z"/><path id="brg6M" d="M218.2 4054.96l-.2 1.04 7-1.07-.5-.93z"/><path id="brg6N" d="M218.2 4056.01l-.2.99 8-1.11-.52-.89z"/><path id="brg6O" d="M217.19 4057.06l-.19.94 8-1.16-.48-.84z"/><path id="brg6P" d="M217.2 4057.65l-.2 1.35 9-1.8-.5-1.2z"/><path id="brg6Q" d="M217.18 4058.71L217 4060l9-1.84-.46-1.16z"/><path id="brg6R" d="M217.19 4059.77L217 4061l10-1.9-.47-1.1z"/><path id="brg6S" d="M217.2 4060.82l-.2 1.18 11-1.94-.5-1.06z"/><path id="brg6T" d="M217.2 4060.86l-.2 1.14 12-1.98-.5-1.02z"/><path id="brg6U" d="M217.19 4061.9l-.19 1.1 12-2.01-.48-.99z"/><path id="brg6V" d="M217.2 4062.94l-.2 1.06 13-2.05-.49-.95z"/><path id="brg6W" d="M216.2 4063.98l-.2 1.02 14-2.08-.5-.92z"/><path id="brg6X" d="M216.01 4063.94l-.01.06 14-1.27-.41-.73z"/><path id="brg6Y" d="M236 4051.23l.44.3.3-.53z"/><path id="brg6Z" d="M235 4051.29l.71.68.29-.67-.31-.3z"/><path id="brg6aa" d="M235 4052.22l1.59.78.41-.5-1.02-.5z"/><path id="brg6ab" d="M235 4052.17l1.68.83.32-.39-1.24-.61z"/><path id="brg6ac" d="M234 4052.28l2.6 1.72.4-.64-2.06-1.36z"/><path id="brg6ad" d="M234 4052.23l2.67 1.77.33-.54-2.2-1.46z"/><path id="brg6ae" d="M233 4053.3l2.71 2.7.29-.7-2.31-2.3z"/><path id="brg6af" d="M232 4053.27l2.75 2.73.25-.62-2.4-2.38z"/><path id="brg6ag" d="M231 4053.24l2.77 2.76.23-.55-2.46-2.45z"/><path id="brg6ah" d="M230 4054.22l3.73 2.78.27-.5-3.35-2.5z"/><path id="brg6ai" d="M229 4054.2l3.75 2.8.25-.46-3.4-2.54z"/><path id="brg6aj" d="M229 4054.18l4.71 2.82.29-.42-4.31-2.58z"/><path id="brg6ak" d="M229 4054.17l4.73 2.83.27-.39-4.36-2.61z"/><path id="brg6al" d="M228 4054.16l5.7 2.84.3-.36-5.29-2.64z"/><path id="brg6am" d="M227 4054.2l5.72 3.8.28-.45-5.33-3.55z"/><path id="brg6an" d="M226 4054.18l6.7 3.82.3-.43-6.27-3.57z"/><path id="brg6ao" d="M225 4055.17l6.71 3.83.29-.4-6.31-3.6z"/><path id="brg6ap" d="M225 4055.2l7.69 4.8.31-.47-7.26-4.53z"/><path id="brg6aq" d="M224 4055.1l.4.56 7.3 4.34.3-.45-7.63-4.55z"/><path id="brg6ar" d="M225.78 4057.17l5.92 3.83.3-.47-7-4.53z"/><path id="brg6as" d="M226.8 4058.08l4.9 2.92.3-.44-6-3.56z"/><path id="brg6at" d="M229.9 4063l1.1-2.01-4-2.99z"/><path id="brg6b" d="M234.34 4057.31l7.17-.8-4.09-5.21z"/><path id="brg6av" d="M240.14 4047.76l-8.67 11.27v-11.27z"/><path id="brg6aw" d="M236 4053l1-1.67-.2-.33z"/><path id="brg6ax" d="M236.2 4053.36L235 4055l3-2.73-.3-.27z"/><path id="brg6ay" d="M235.8 4053.88l-.8 1.12 3-2.81-.2-.19z"/><path id="brg6az" d="M234.67 4055.02l-.67.98h.08l3.92-3.8-.2-.2z"/><path id="brg6aA" d="M235 4056l.44-.04 3.56-3.75-.2-.21z"/><path id="brg6aB" d="M235 4057l.35-.04 2.65-3.74-.16-.22z"/><path id="brg6aC" d="M235 4056l.37-.03 2.63-2.79-.17-.18z"/><path id="brg6aD" d="M235 4056l.4-.04 2.6-2.77-.19-.19z"/><path id="brg6aE" d="M235 4057l.43-.04 2.57-2.75-.2-.21z"/><path id="brg6aF" d="M236 4057l.47-.04 2.53-2.73-.22-.23z"/><path id="brg6aG" d="M236 4057l.51-.05 2.49-2.7-.24-.25z"/><path id="brg6aH" d="M237 4057l.56-.05 2.44-2.67-.26-.28z"/><path id="brg6aI" d="M238 4057l.63-.06 2.37-2.63-.3-.31z"/><path id="brg6aJ" d="M238 4057l.71-.07 2.29-2.57-.33-.36z"/><path id="brg6aK" d="M239 4057l.54-.05 1.46-1.67-.25-.28z"/><path id="brg6aL" d="M240 4057l.63-.06 1.37-1.6-.3-.34z"/><path id="brg6aM" d="M240 4056l.38-.04.62-.75-.18-.21z"/><path id="brg6aN" d="M240 4057l.48-.05.52-.67-.22-.28z"/><path id="brg6aO" d="M240 4056.8l.65-.07.35-.4-.3-.33z"/><path id="brg6aP" d="M241 4056.4l.66-.06-.3-.34z"/><path id="brg6aQ" d="M241 4056z"/><path id="brg6c" d="M216.23 4064.28l-4.93 11.26 19.01-12.36z"/><path id="brg6aS" d="M234.67 4072.64l-8.26-18.46h8.26z"/><path id="brg6aT" d="M229 4063.12l.2.71.8-.83z"/><path id="brg6aU" d="M228 4063.08l.64.92 1.36-.57-.3-.43z"/><path id="brg6aV" d="M226 4064.11l.84 1.89 1.16-.77-.55-1.23z"/><path id="brg6aW" d="M225 4064.13l1.47 2.87 1.53-.87-1.1-2.13z"/><path id="brg6aX" d="M224 4064.1l1.64 2.9 1.36-.7-1.3-2.3z"/><path id="brg6aY" d="M223 4064.09l1.78 2.91 1.22-.58-1.48-2.42z"/><path id="brg6aZ" d="M222 4064.07l1.9 2.93 1.1-.5-1.62-2.5z"/><path id="brg6ba" d="M220 4064.09l1.98 3.91 1.02-.58-1.73-3.42z"/><path id="brg6bb" d="M219 4064.1l2.06 4.9.94-.65-1.83-4.35z"/><path id="brg6bc" d="M218 4065.1l2.13 5.9.87-.7-1.92-5.3z"/><path id="brg6bd" d="M217 4065.1l2.19 5.9.81-.64-1.99-5.36z"/><path id="brg6be" d="M216.18 4065.07l-.18.52 2.2 6.41.8-.68-2.17-6.32z"/><path id="brg6bf" d="M215 4066.5l2.11 5.5.89-.67-2.43-6.33z"/><path id="brg6bg" d="M214 4068.47l2 4.53 1-.65-2.36-5.35z"/><path id="brg6bh" d="M214 4069.42l1.87 3.58 1.13-.63-2.28-4.37z"/><path id="brg6bi" d="M213 4071.34l1.69 2.66 1.31-.6-2.16-3.4z"/><path id="brg6bj" d="M213 4071.24l1.45 1.76 1.55-.55-2-2.45z"/><path id="brg6bk" d="M212 4073.6l.72 1.4 1.28-.72-1.18-2.28z"/><path id="brg6bl" d="M211 4075.28l.17.72.83-1.02-.47-1.98z"/><path id="brg6bm" d="M211 4076l.77-.44-.28-.56z"/><path id="brg6bo" d="M206.94 4067.03l7.84 17.51h-7.84z"/><path id="brg6bp" d="M204 4070.08l.24.1-.05-.18z"/><path id="brg6bq" d="M204 4069.35l.04.18.96.43-.23-.96z"/><path id="brg6br" d="M205 4069.2l.2.55.8.25-.35-1z"/><path id="brg6bs" d="M205 4069.28l.3 1.38.7.34-.44-2z"/><path id="brg6bt" d="M206 4068.32l.39 2.3.61.38-.51-3z"/><path id="brg6bu" d="M206 4068.26l.9 2.43 1.1.31-1.12-3z"/><path id="brg6bv" d="M207 4068.22l1.02 2.52.98.26-1.2-3z"/><path id="brg6bw" d="M208 4067.19l1.1 2.58.9.23-1.28-3z"/><path id="brg6bx" d="M208 4067.22l1.18 3.51.82.27-1.34-4z"/><path id="brg6by" d="M209 4067.25l1.86 4.45 1.14.3-2.08-5z"/><path id="brg6bz" d="M209 4067.27l1.94 5.4 1.06.33-2.15-6z"/><path id="brg6bA" d="M210 4067.24l2 5.47 1 .29-2.2-6z"/><path id="brg6bB" d="M211 4067.27l2.35 6.68.16.05.49-.88-2.15-6.12z"/><path id="brg6bC" d="M211 4066.25l2.36 5.75.64-.98-2.06-5.02z"/><path id="brg6bD" d="M212 4066.24l1.53 4.76.47-.93-1.3-4.07z"/><path id="brg6bE" d="M213 4066.22l1.47 3.78.53-.86-1.22-3.14z"/><path id="brg6bF" d="M213 4065.2l1.4 2.8.6-.77-1.1-2.23z"/><path id="brg6bG" d="M213 4065.25l.65 2.75.35-.96-.48-2.04z"/><path id="brg6bH" d="M214 4065.32l.58 2.68.42-1.25-.38-1.75z"/><path id="brg6bI" d="M215 4065.31l.47 1.69.53-1.21-.22-.79z"/><path id="brg6bJ" d="M216 4065.26l.24.74.5-1z"/><path id="brg6d" d="M204.17 4069.5l8.71 3.4 3.64-8.35z"/><path id="brg6bL" d="M218.55 4071.58l-3.46-12.48h3.46z"/><path id="brg6bM" d="M229 4064l-3.98-9-1.02.34z"/><path id="brg6bN" d="M237 4051l-1.92 4.9-1.08.1z"/><path id="brg6bO" d="M216 4065l-3.48 8-.52-.19z"/><path id="brg6bP" d="M220 4048l-4 13.8.71 1.2z"/><path id="brg6bQ" d="M136 4095.62v-25.56c0-2.18.5-3.81 1.47-4.9a4.95 4.95 0 0 1 3.86-1.63c1.67 0 3 .54 3.97 1.63.98 1.09 1.47 2.72 1.47 4.9v26.14c0 2.98.33 5.46 1 7.45a8.6 8.6 0 0 0 3.53 4.65c1.7 1.1 4.06 1.65 7.11 1.65 4.2 0 7.18-1.12 8.92-3.36 1.74-2.23 2.61-5.62 2.61-10.17v-26.36c0-2.2.49-3.84 1.45-4.92a4.96 4.96 0 0 1 3.88-1.61c1.62 0 2.93.54 3.94 1.61 1 1.08 1.5 2.72 1.5 4.92v25.56c0 4.16-.4 7.63-1.21 10.41a16.14 16.14 0 0 1-4.59 7.33 17.85 17.85 0 0 1-6.74 3.91 29.53 29.53 0 0 1-9 1.24c-4.08 0-7.6-.45-10.55-1.33a16.9 16.9 0 0 1-7.22-4.1 16.54 16.54 0 0 1-4.1-7.1 36.2 36.2 0 0 1-1.3-10.36"/><path id="brg6bR" d="M214.6 4088.7c-.2-1.4-.62-2.71-1.27-3.92a10.81 10.81 0 0 0-4.6-4.82c-2.06-1.14-4.16-1.44-7-1.7-.78-.08-3.7 0-4.48 0-2.6 0-4.94.56-7 1.7a10.82 10.82 0 0 0-4.6 4.82 11.4 11.4 0 0 0-1.27 3.91c-.2 1.4-.29 3.2-.29 5.37v18.42c0 1.99.45 3.48 1.36 4.5a4.52 4.52 0 0 0 3.53 1.52c1.48 0 2.68-.52 3.6-1.56.91-1.04 1.37-2.52 1.37-4.46v-16.5c0-3.26.46-5.75 1.36-7.49.76-1.44 5.23-3.68 8.35 0 1.27 1.5 1.36 4.23 1.36 7.5v16.5c0 1.93.46 3.41 1.38 4.45a4.57 4.57 0 0 0 3.6 1.56 4.5 4.5 0 0 0 3.53-1.52c.9-1.02 1.36-2.51 1.36-4.5v-18.42c0-2.17-.1-3.96-.3-5.37"/><path id="brg6bS" d="M229.77 4083.87v28.61c0 1.98-.47 3.48-1.42 4.5a4.7 4.7 0 0 1-3.58 1.52 4.48 4.48 0 0 1-3.54-1.56c-.9-1.04-1.36-2.52-1.36-4.46v-28.32c0-1.96.45-3.44 1.36-4.42.9-1 2.09-1.49 3.54-1.49 1.44 0 2.64.5 3.58 1.49.95.98 1.42 2.37 1.42 4.13"/><path id="brg6bT" d="M245.33 4070.05v18.64l21.14-22.05a19.12 19.12 0 0 1 2.6-2.36 4.8 4.8 0 0 1 2.84-.76c1.55 0 2.8.45 3.75 1.36a4.4 4.4 0 0 1 1.44 3.32c0 1.57-.81 3.13-2.43 4.68l-13.1 12.4 15.09 21.61a27 27 0 0 1 2.4 3.94c.53 1.12.79 2.21.79 3.28a4.1 4.1 0 0 1-1.4 3.08c-.92.87-2.2 1.3-3.78 1.3a6.4 6.4 0 0 1-3.67-.96 8.28 8.28 0 0 1-2.39-2.55c-.65-1.07-1.23-2.03-1.74-2.9l-12.73-19.59-8.81 8.45v11c0 2.21-.5 3.86-1.52 4.94a5.15 5.15 0 0 1-3.92 1.61c-.92 0-1.8-.24-2.65-.72a5.09 5.09 0 0 1-1.95-1.96 6.45 6.45 0 0 1-.62-2.36c-.07-.9-.11-2.18-.11-3.88v-39.52c0-2.18.48-3.81 1.43-4.9a4.92 4.92 0 0 1 3.9-1.63c1.62 0 2.93.54 3.94 1.62 1 1.07 1.5 2.7 1.5 4.9"/><path id="brg6bU" d="M137.38 4134.72c0 .04-.01.07-.03.1a.17.17 0 0 1-.08.05 1.2 1.2 0 0 1-.41.05 1.73 1.73 0 0 1-.41-.05.17.17 0 0 1-.09-.06.15.15 0 0 1-.02-.09v-7.68c0-.03 0-.06.03-.09a.19.19 0 0 1 .09-.06 1.14 1.14 0 0 1 .4-.05 1.73 1.73 0 0 1 .4.05l.1.06.02.09z"/><path id="brg6bV" d="M146.26 4134.44l-.01.2c0 .05-.02.1-.04.13a.22.22 0 0 1-.07.08.16.16 0 0 1-.09.03h-3.74a.42.42 0 0 1-.27-.1c-.08-.06-.12-.17-.12-.33v-7.15c0-.16.04-.27.12-.33.09-.07.17-.1.27-.1h3.7c.03 0 .06 0 .09.02l.06.08.04.14a1.4 1.4 0 0 1 0 .4.63.63 0 0 1-.04.14.19.19 0 0 1-.06.08.16.16 0 0 1-.1.03h-3.04v2.5h2.61c.04 0 .07.02.1.03l.06.08.04.14a1.42 1.42 0 0 1 0 .4.4.4 0 0 1-.04.12.18.18 0 0 1-.07.08.2.2 0 0 1-.09.02h-2.61v2.86h3.1l.08.03c.02.01.05.04.07.08a.4.4 0 0 1 .04.13l.01.2"/><path id="brg6bW" d="M155.33 4130.8c0 .55-.06 1.02-.17 1.41-.12.4-.29.73-.52 1-.23.26-.51.46-.86.58-.34.13-.76.2-1.26.2h-1.06v-6.23h1.05c.54 0 .98.07 1.32.22.35.16.63.37.85.64.22.27.39.6.5.97.1.37.15.78.15 1.21zm1.09-.04c0-.6-.08-1.15-.24-1.63a3.15 3.15 0 0 0-1.89-2 4.8 4.8 0 0 0-1.72-.26h-1.76c-.1 0-.18.03-.27.1-.08.06-.12.17-.12.33v7.15c0 .16.04.27.12.33.09.07.17.1.27.1h1.65c.66 0 1.24-.09 1.72-.26a3.13 3.13 0 0 0 1.98-2.05c.17-.51.26-1.12.26-1.81z"/><path id="brg6bX" d="M164.83 4134.44l-.01.2c0 .05-.02.1-.04.13a.22.22 0 0 1-.07.08.16.16 0 0 1-.09.03h-3.74a.42.42 0 0 1-.27-.1c-.08-.06-.12-.17-.12-.33v-7.15c0-.16.04-.27.12-.33.09-.07.17-.1.27-.1h3.7c.03 0 .06 0 .09.02l.06.08.04.14a1.4 1.4 0 0 1 0 .4.63.63 0 0 1-.04.14.19.19 0 0 1-.06.08.16.16 0 0 1-.1.03h-3.04v2.5h2.61c.04 0 .07.02.1.03l.06.08.04.14a1.42 1.42 0 0 1 0 .4.4.4 0 0 1-.04.12.18.18 0 0 1-.07.08.2.2 0 0 1-.09.02h-2.61v2.86h3.1l.08.03c.02.01.05.04.07.08a.4.4 0 0 1 .04.13l.01.2"/><path id="brg6bY" d="M172.63 4129.1c0 .19-.03.37-.1.53-.05.17-.15.3-.28.43-.14.12-.3.22-.5.29-.2.06-.44.1-.71.1h-1.01v-2.7h.87a5.21 5.21 0 0 1 .84.08c.32.1.55.25.69.47.13.21.2.48.2.8zm1.56 5.62c0-.04 0-.08-.02-.14a3.68 3.68 0 0 0-.1-.31l-.7-1.77-.25-.54c-.08-.16-.16-.3-.26-.43a1.88 1.88 0 0 0-.29-.32c-.1-.09-.22-.16-.35-.22.23-.08.44-.18.62-.3.19-.12.35-.26.48-.43.13-.16.23-.35.3-.56.07-.21.1-.45.1-.72 0-.28-.03-.53-.1-.76a1.78 1.78 0 0 0-.94-1.05 2.92 2.92 0 0 0-1.15-.28l-.5-.02h-1.65c-.1 0-.18.03-.27.1-.08.06-.12.17-.12.33v7.42c0 .03 0 .06.02.08.02.03.05.05.09.06a1.73 1.73 0 0 0 .82 0 .2.2 0 0 0 .08-.06.14.14 0 0 0 .03-.08v-3.41h.7c.23 0 .43.03.6.1.17.08.32.18.44.3.12.14.23.3.32.47.1.18.18.38.26.6l.72 1.88.06.13c.02.03.05.05.1.07.03.02.09.03.15.04l.26.02c.12 0 .22 0 .29-.02.07 0 .13-.02.17-.03.04-.02.06-.04.08-.07a.19.19 0 0 0 .01-.08z"/><path id="brg6bZ" d="M182.51 4134.44l-.01.2c0 .05-.02.1-.04.13a.22.22 0 0 1-.07.08.16.16 0 0 1-.09.03h-3.74a.42.42 0 0 1-.27-.1c-.08-.06-.12-.17-.12-.33v-7.15c0-.16.04-.27.12-.33.09-.07.17-.1.27-.1h3.7c.03 0 .06 0 .09.02l.06.08.04.14a1.4 1.4 0 0 1 0 .4.63.63 0 0 1-.04.14.19.19 0 0 1-.06.08.16.16 0 0 1-.1.03h-3.04v2.5h2.61c.04 0 .07.02.1.03l.06.08.04.14a1.42 1.42 0 0 1 0 .4.4.4 0 0 1-.04.12.18.18 0 0 1-.07.08.2.2 0 0 1-.09.02h-2.61v2.86h3.1l.08.03c.02.01.05.04.07.08a.4.4 0 0 1 .04.13l.01.2"/><path id="brg6ca" d="M191.01 4134.44l-.01.2c0 .05-.02.1-.04.13a.22.22 0 0 1-.07.08.16.16 0 0 1-.09.03h-3.74a.42.42 0 0 1-.27-.1c-.08-.06-.12-.17-.12-.33v-7.15c0-.16.04-.27.12-.33.09-.07.17-.1.27-.1h3.7c.03 0 .06 0 .09.02l.06.08.04.14a1.4 1.4 0 0 1 0 .4.63.63 0 0 1-.04.14.19.19 0 0 1-.06.08.16.16 0 0 1-.1.03h-3.04v2.5h2.61c.04 0 .07.02.1.03l.06.08.04.14a1.42 1.42 0 0 1 0 .4.4.4 0 0 1-.04.12.18.18 0 0 1-.07.08.2.2 0 0 1-.09.02h-2.61v2.86h3.1l.08.03c.02.01.05.04.07.08a.4.4 0 0 1 .04.13l.01.2"/><path id="brg6cb" d="M201.07 4134.45a.43.43 0 0 1-.3.43.63.63 0 0 1-.16.02h-.34c-.1 0-.2 0-.28-.03a.66.66 0 0 1-.24-.12 1.22 1.22 0 0 1-.21-.25c-.08-.1-.15-.23-.24-.4l-2.38-4.55a25.48 25.48 0 0 1-.73-1.49 61.25 61.25 0 0 1 .02 1.83v4.83l-.03.09a.18.18 0 0 1-.08.06l-.16.04a1.75 1.75 0 0 1-.66-.04.17.17 0 0 1-.08-.06.16.16 0 0 1-.03-.09v-7.38c0-.17.05-.29.14-.36.09-.07.19-.1.3-.1h.5c.13 0 .23 0 .3.03.09.02.16.05.23.1.06.05.12.11.18.2l.2.32 1.82 3.51.33.63a40.4 40.4 0 0 1 .87 1.77v-1.02V4127.06c0-.03 0-.06.02-.08a.19.19 0 0 1 .08-.07l.16-.04a2.1 2.1 0 0 1 .66.04.2.2 0 0 1 .08.07c.02.02.03.05.03.08z"/><path id="brg6cc" d="M215.78 4130.8c0 .55-.06 1.02-.17 1.41-.12.4-.29.73-.52 1-.23.26-.51.46-.85.58-.35.13-.77.2-1.26.2h-1.07v-6.23h1.05c.54 0 .98.07 1.32.22.35.16.63.37.85.64.23.27.39.6.5.97.1.37.15.78.15 1.21zm1.1-.04a5 5 0 0 0-.25-1.63 3.15 3.15 0 0 0-1.89-2 4.8 4.8 0 0 0-1.72-.26h-1.76c-.1 0-.18.03-.27.1-.08.06-.12.17-.12.33v7.15c0 .16.04.27.12.33.09.07.17.1.27.1h1.65c.67 0 1.24-.09 1.72-.26.49-.16.9-.42 1.23-.76.33-.34.58-.77.75-1.29.18-.51.26-1.12.26-1.81z"/><path id="brg6cd" d="M226.38 4130.86c0 .44-.04.85-.12 1.23-.08.39-.21.73-.4 1.03-.2.3-.44.53-.75.7-.3.18-.7.26-1.15.26-.45 0-.83-.08-1.14-.24-.3-.16-.54-.38-.72-.66-.18-.3-.31-.63-.39-1.03a7.13 7.13 0 0 1 .01-2.52c.08-.38.22-.72.41-1 .2-.3.44-.53.75-.7.3-.17.68-.26 1.13-.26.45 0 .82.08 1.13.24.3.16.55.39.73.67.19.29.31.63.4 1.02.07.39.11.8.11 1.26zm1.1-.07c0-.65-.07-1.22-.2-1.72-.15-.5-.36-.93-.64-1.27-.29-.34-.64-.6-1.07-.77a3.9 3.9 0 0 0-1.5-.27c-.6 0-1.12.1-1.56.3-.45.19-.82.47-1.12.83-.3.36-.52.8-.67 1.31a6.8 6.8 0 0 0-.02 3.47c.14.51.35.94.63 1.28.28.34.63.6 1.06.78.43.18.94.27 1.53.27.59 0 1.1-.1 1.56-.29.44-.2.81-.48 1.1-.84.3-.37.53-.8.67-1.33.15-.52.23-1.1.23-1.75z"/><path id="brg6ce" d="M235.93 4134.44l-.01.2a.4.4 0 0 1-.04.13.2.2 0 0 1-.07.08.15.15 0 0 1-.09.03h-3.75a.41.41 0 0 1-.26-.1c-.08-.06-.12-.17-.12-.33v-7.15c0-.16.04-.27.12-.33a.4.4 0 0 1 .26-.1h3.7c.04 0 .07 0 .1.02a.2.2 0 0 1 .06.08l.04.14a1.07 1.07 0 0 1-.04.54.2.2 0 0 1-.06.08.16.16 0 0 1-.1.03h-3.04v2.5h2.62l.08.03.07.08.04.14a1.42 1.42 0 0 1 0 .4c-.01.05-.02.1-.04.12a.19.19 0 0 1-.07.08.19.19 0 0 1-.08.02h-2.62v2.86h3.1l.08.03c.03.01.05.04.07.08.02.03.03.07.04.13l.01.2"/><path id="brg6cf" d="M244.98 4127.33c0 .08 0 .14-.02.2 0 .06-.01.1-.03.14a.2.2 0 0 1-.07.08.15.15 0 0 1-.09.02h-2.2v6.95c0 .03 0 .06-.02.08a.18.18 0 0 1-.08.06 1.14 1.14 0 0 1-.4.06 1.75 1.75 0 0 1-.42-.06.19.19 0 0 1-.09-.06.15.15 0 0 1-.02-.08v-6.95h-2.2c-.03 0-.05 0-.08-.02a.2.2 0 0 1-.07-.08 1.09 1.09 0 0 1-.05-.34 1.11 1.11 0 0 1 .05-.36.2.2 0 0 1 .07-.08.17.17 0 0 1 .09-.02h5.42c.04 0 .06 0 .09.02a.2.2 0 0 1 .07.08.5.5 0 0 1 .03.15l.02.2"/><path id="brg6cg" d="M262.33 4134.72l-.03.09c-.01.02-.04.04-.08.05a1.34 1.34 0 0 1-.41.06 1.78 1.78 0 0 1-.41-.06.19.19 0 0 1-.09-.05.18.18 0 0 1-.02-.1v-6.97h-.01l-2.75 7a.2.2 0 0 1-.06.08.24.24 0 0 1-.1.06 1.81 1.81 0 0 1-.73 0 .26.26 0 0 1-.08-.06.15.15 0 0 1-.05-.07l-2.62-7h-.01v6.97c0 .03 0 .06-.03.09a.17.17 0 0 1-.08.05 1.5 1.5 0 0 1-.83 0 .15.15 0 0 1-.08-.05.17.17 0 0 1-.02-.1v-7.36c0-.17.05-.3.14-.37.08-.07.19-.11.3-.11h.63c.13 0 .25.01.34.04.1.02.19.06.26.12.08.05.14.12.19.2.05.08.09.18.13.29l2.23 5.8h.03l2.32-5.78c.04-.13.1-.23.14-.32a.8.8 0 0 1 .18-.2.57.57 0 0 1 .21-.11.91.91 0 0 1 .27-.04h.67l.18.03.13.08.1.15c.02.06.04.14.04.22z"/><path id="brg6ch" d="M271.21 4134.44l-.01.2a.4.4 0 0 1-.04.13.2.2 0 0 1-.07.08.15.15 0 0 1-.09.03h-3.75a.41.41 0 0 1-.26-.1c-.08-.06-.12-.17-.12-.33v-7.15c0-.16.04-.27.12-.33a.4.4 0 0 1 .26-.1h3.7c.04 0 .07 0 .1.02a.2.2 0 0 1 .06.08l.04.14a1.07 1.07 0 0 1-.04.54.2.2 0 0 1-.06.08.16.16 0 0 1-.1.03h-3.04v2.5h2.62l.08.03.07.08.04.14a1.42 1.42 0 0 1 0 .4c-.01.05-.02.1-.04.12a.19.19 0 0 1-.07.08.19.19 0 0 1-.08.02h-2.62v2.86h3.1l.08.03c.03.01.05.04.07.08.02.03.03.07.04.13l.01.2"/><path id="brg6ci" d="M279.71 4134.44l-.01.2a.4.4 0 0 1-.04.13.2.2 0 0 1-.07.08.15.15 0 0 1-.09.03h-3.75a.41.41 0 0 1-.26-.1c-.08-.06-.12-.17-.12-.33v-7.15c0-.16.04-.27.12-.33a.4.4 0 0 1 .26-.1h3.7c.04 0 .07 0 .1.02a.2.2 0 0 1 .06.08l.04.14a1.07 1.07 0 0 1-.04.54.2.2 0 0 1-.06.08.16.16 0 0 1-.1.03h-3.04v2.5h2.62l.08.03.07.08.04.14a1.42 1.42 0 0 1 0 .4c-.01.05-.02.1-.04.12a.19.19 0 0 1-.07.08.19.19 0 0 1-.08.02h-2.62v2.86h3.1l.08.03c.03.01.05.04.07.08.02.03.03.07.04.13l.01.2"/><clipPath id="brg6e"><use xlink:href="#brg6a"/></clipPath><clipPath id="brg6A"><use xlink:href="#brg6a"/></clipPath><clipPath id="brg6au"><use xlink:href="#brg6b"/></clipPath><clipPath id="brg6aR"><use xlink:href="#brg6c"/></clipPath><clipPath id="brg6bn"><use xlink:href="#brg6c"/></clipPath><clipPath id="brg6bK"><use xlink:href="#brg6d"/></clipPath></defs><g><g transform="translate(-136 -4038.47)"><g><g/><g clip-path="url(#brg6e)"><use fill="#efca00" xlink:href="#brg6f"/></g></g><g><use fill="#efca00" xlink:href="#brg6g"/></g><g><use fill="#efc900" xlink:href="#brg6h"/></g><g><use fill="#efc900" xlink:href="#brg6i"/></g><g><use fill="#eec800" xlink:href="#brg6j"/></g><g><use fill="#eec800" xlink:href="#brg6k"/></g><g><use fill="#eec700" xlink:href="#brg6l"/></g><g><use fill="#edc600" xlink:href="#brg6m"/></g><g><use fill="#edc601" xlink:href="#brg6n"/></g><g><use fill="#ecc502" xlink:href="#brg6o"/></g><g><use fill="#ecc404" xlink:href="#brg6p"/></g><g><use fill="#ebc305" xlink:href="#brg6q"/></g><g><use fill="#ebc206" xlink:href="#brg6r"/></g><g><use fill="#eac107" xlink:href="#brg6s"/></g><g><use fill="#eac008" xlink:href="#brg6t"/></g><g><use fill="#e9bf0a" xlink:href="#brg6u"/></g><g><use fill="#e9bf0b" xlink:href="#brg6v"/></g><g><use fill="#e8bd0c" xlink:href="#brg6w"/></g><g><use fill="#e8bc0d" xlink:href="#brg6x"/></g><g><use fill="#e7bb0e" xlink:href="#brg6y"/></g><g><use fill="#e7ba0f" xlink:href="#brg6z"/></g><g><g/><g clip-path="url(#brg6A)"><use fill="#e7ba0f" xlink:href="#brg6B"/></g></g><g><use fill="#efca00" xlink:href="#brg6C"/></g><g><use fill="#efca00" xlink:href="#brg6D"/></g><g><use fill="#efc900" xlink:href="#brg6E"/></g><g><use fill="#efc900" xlink:href="#brg6F"/></g><g><use fill="#efc900" xlink:href="#brg6G"/></g><g><use fill="#eec800" xlink:href="#brg6H"/></g><g><use fill="#eec800" xlink:href="#brg6I"/></g><g><use fill="#eec700" xlink:href="#brg6J"/></g><g><use fill="#edc700" xlink:href="#brg6K"/></g><g><use fill="#edc601" xlink:href="#brg6L"/></g><g><use fill="#ecc502" xlink:href="#brg6M"/></g><g><use fill="#ecc403" xlink:href="#brg6N"/></g><g><use fill="#ebc305" xlink:href="#brg6O"/></g><g><use fill="#ebc206" xlink:href="#brg6P"/></g><g><use fill="#eac107" xlink:href="#brg6Q"/></g><g><use fill="#eac009" xlink:href="#brg6R"/></g><g><use fill="#e9bf0a" xlink:href="#brg6S"/></g><g><use fill="#e9be0b" xlink:href="#brg6T"/></g><g><use fill="#e8bd0d" xlink:href="#brg6U"/></g><g><use fill="#e8bc0e" xlink:href="#brg6V"/></g><g><use fill="#e7ba0f" xlink:href="#brg6W"/></g><g><use fill="#e7ba0f" xlink:href="#brg6X"/></g><g><use fill="#efca00" xlink:href="#brg6Y"/></g><g><use fill="#efca00" xlink:href="#brg6Z"/></g><g><use fill="#efc900" xlink:href="#brg6aa"/></g><g><use fill="#efc900" xlink:href="#brg6ab"/></g><g><use fill="#efc900" xlink:href="#brg6ac"/></g><g><use fill="#eec800" xlink:href="#brg6ad"/></g><g><use fill="#eec800" xlink:href="#brg6ae"/></g><g><use fill="#eec700" xlink:href="#brg6af"/></g><g><use fill="#edc700" xlink:href="#brg6ag"/></g><g><use fill="#edc601" xlink:href="#brg6ah"/></g><g><use fill="#ecc502" xlink:href="#brg6ai"/></g><g><use fill="#ecc403" xlink:href="#brg6aj"/></g><g><use fill="#ebc305" xlink:href="#brg6ak"/></g><g><use fill="#ebc206" xlink:href="#brg6al"/></g><g><use fill="#eac107" xlink:href="#brg6am"/></g><g><use fill="#eac009" xlink:href="#brg6an"/></g><g><use fill="#e9bf0a" xlink:href="#brg6ao"/></g><g><use fill="#e9be0b" xlink:href="#brg6ap"/></g><g><use fill="#e8bd0d" xlink:href="#brg6aq"/></g><g><use fill="#e8bc0e" xlink:href="#brg6ar"/></g><g><use fill="#e7ba0f" xlink:href="#brg6as"/></g><g><use fill="#e7ba0f" xlink:href="#brg6at"/></g><g><g/><g clip-path="url(#brg6au)"><use fill="#efca00" xlink:href="#brg6av"/></g></g><g><use fill="#efca00" xlink:href="#brg6aw"/></g><g><use fill="#efc900" xlink:href="#brg6ax"/></g><g><use fill="#efc900" xlink:href="#brg6ay"/></g><g><use fill="#efc900" xlink:href="#brg6az"/></g><g><use fill="#eec800" xlink:href="#brg6aA"/></g><g><use fill="#eec800" xlink:href="#brg6aB"/></g><g><use fill="#eec700" xlink:href="#brg6aC"/></g><g><use fill="#edc700" xlink:href="#brg6aD"/></g><g><use fill="#edc601" xlink:href="#brg6aE"/></g><g><use fill="#ecc502" xlink:href="#brg6aF"/></g><g><use fill="#ecc403" xlink:href="#brg6aG"/></g><g><use fill="#ebc305" xlink:href="#brg6aH"/></g><g><use fill="#ebc206" xlink:href="#brg6aI"/></g><g><use fill="#eac107" xlink:href="#brg6aJ"/></g><g><use fill="#eac009" xlink:href="#brg6aK"/></g><g><use fill="#e9bf0a" xlink:href="#brg6aL"/></g><g><use fill="#e9be0b" xlink:href="#brg6aM"/></g><g><use fill="#e8bd0d" xlink:href="#brg6aN"/></g><g><use fill="#e8bc0e" xlink:href="#brg6aO"/></g><g><use fill="#e7ba0f" xlink:href="#brg6aP"/></g><g><use fill="#e7ba0f" xlink:href="#brg6aQ"/></g><g><g/><g clip-path="url(#brg6aR)"><use fill="#efca00" xlink:href="#brg6aS"/></g></g><g><use fill="#efca00" xlink:href="#brg6aT"/></g><g><use fill="#efc900" xlink:href="#brg6aU"/></g><g><use fill="#efc900" xlink:href="#brg6aV"/></g><g><use fill="#efc900" xlink:href="#brg6aW"/></g><g><use fill="#eec800" xlink:href="#brg6aX"/></g><g><use fill="#eec800" xlink:href="#brg6aY"/></g><g><use fill="#eec700" xlink:href="#brg6aZ"/></g><g><use fill="#edc700" xlink:href="#brg6ba"/></g><g><use fill="#edc601" xlink:href="#brg6bb"/></g><g><use fill="#ecc502" xlink:href="#brg6bc"/></g><g><use fill="#ecc403" xlink:href="#brg6bd"/></g><g><use fill="#ebc305" xlink:href="#brg6be"/></g><g><use fill="#ebc206" xlink:href="#brg6bf"/></g><g><use fill="#eac107" xlink:href="#brg6bg"/></g><g><use fill="#eac009" xlink:href="#brg6bh"/></g><g><use fill="#e9bf0a" xlink:href="#brg6bi"/></g><g><use fill="#e9be0b" xlink:href="#brg6bj"/></g><g><use fill="#e8bd0d" xlink:href="#brg6bk"/></g><g><use fill="#e8bc0e" xlink:href="#brg6bl"/></g><g><use fill="#e7ba0f" xlink:href="#brg6bm"/></g><g><g/><g clip-path="url(#brg6bn)"><use fill="#e7ba0f" xlink:href="#brg6bo"/></g></g><g><use fill="#efca00" xlink:href="#brg6bp"/></g><g><use fill="#efca00" xlink:href="#brg6bq"/></g><g><use fill="#efc900" xlink:href="#brg6br"/></g><g><use fill="#efc900" xlink:href="#brg6bs"/></g><g><use fill="#efc900" xlink:href="#brg6bt"/></g><g><use fill="#eec800" xlink:href="#brg6bu"/></g><g><use fill="#eec800" xlink:href="#brg6bv"/></g><g><use fill="#eec700" xlink:href="#brg6bw"/></g><g><use fill="#edc700" xlink:href="#brg6bx"/></g><g><use fill="#edc601" xlink:href="#brg6by"/></g><g><use fill="#ecc502" xlink:href="#brg6bz"/></g><g><use fill="#ecc403" xlink:href="#brg6bA"/></g><g><use fill="#ebc305" xlink:href="#brg6bB"/></g><g><use fill="#ebc206" xlink:href="#brg6bC"/></g><g><use fill="#eac107" xlink:href="#brg6bD"/></g><g><use fill="#eac009" xlink:href="#brg6bE"/></g><g><use fill="#e9bf0a" xlink:href="#brg6bF"/></g><g><use fill="#e9be0b" xlink:href="#brg6bG"/></g><g><use fill="#e8bd0d" xlink:href="#brg6bH"/></g><g><use fill="#e8bc0e" xlink:href="#brg6bI"/></g><g><use fill="#e7ba0f" xlink:href="#brg6bJ"/></g><g><g/><g clip-path="url(#brg6bK)"><use fill="#e7ba0f" xlink:href="#brg6bL"/></g></g><g><use fill="#c7a604" xlink:href="#brg6bM"/></g><g><use fill="#c7a604" xlink:href="#brg6bN"/></g><g><use fill="#c7a604" xlink:href="#brg6bO"/></g><g><use fill="#c7a604" xlink:href="#brg6bP"/></g><g><g><use fill="#007a7e" xlink:href="#brg6bQ"/></g><g><use fill="#009195" xlink:href="#brg6bR"/></g><g><use fill="#007a7e" xlink:href="#brg6bS"/></g><g><use fill="#007a7e" xlink:href="#brg6bT"/></g><g><use fill="#dac400" xlink:href="#brg6bU"/></g><g><use fill="#dac400" xlink:href="#brg6bV"/></g><g><use fill="#dac400" xlink:href="#brg6bW"/></g><g><use fill="#dac400" xlink:href="#brg6bX"/></g><g><use fill="#dac400" xlink:href="#brg6bY"/></g><g><use fill="#dac400" xlink:href="#brg6bZ"/></g><g><use fill="#dac400" xlink:href="#brg6ca"/></g><g><use fill="#dac400" xlink:href="#brg6cb"/></g><g><use fill="#dac400" xlink:href="#brg6cc"/></g><g><use fill="#dac400" xlink:href="#brg6cd"/></g><g><use fill="#dac400" xlink:href="#brg6ce"/></g><g><use fill="#dac400" xlink:href="#brg6cf"/></g><g><use fill="#dac400" xlink:href="#brg6cg"/></g><g><use fill="#dac400" xlink:href="#brg6ch"/></g><g><use fill="#dac400" xlink:href="#brg6ci"/></g></g></g></g></svg>