<?xml version="1.0" encoding="UTF-8"?>
<svg width="120px" height="120px" viewBox="0 0 120 120" version="1.1" xmlns="http://www.w3.org/2000/svg" xmlns:xlink="http://www.w3.org/1999/xlink">
    <!-- Generator: Sketch 49.3 (51167) - http://www.bohemiancoding.com/sketch -->
    <title>LST_logo_plusBorder</title>
    <desc>Created with Sketch.</desc>
    <defs></defs>
    <g id="LST_logo_plusBorder" stroke="none" stroke-width="1" fill="none" fill-rule="evenodd">
        <g id="Group">
            <polygon id="Fill-1" stroke="#FFFFFF" fill="#A39161" points="0 120 120 120 120 0 0 0"></polygon>
            <polygon id="Fill-2" fill="#FEFEFE" points="12 30.153376 14.060274 30.153376 14.060274 18.8461389 12 18.8461389 12 17 18.6953425 17 18.6953425 18.8461389 16.4038356 18.8461389 16.4038356 30.1761738 21.76 30.1761738 21.76 27.9647846 24 27.9647846 24 32 12 32"></polygon>
            <g id="Group-31" transform="translate(11.000000, 20.000000)" fill="#FEFEFE">
                <path d="M15.766073,5.01702564 L21.6071547,5.01702564 C21.5101987,3.35394872 20.4926767,2.22112821 18.7227145,2.22112821 C17.3173686,2.22112821 16.0327019,3.13702564 15.766073,5.01702564 Z M15.766073,6.55958974 C16.0569409,8.53548718 17.5112805,9.49958974 19.547356,9.49958974 C20.8805006,9.49958974 22.0192176,9.08933333 23.2554063,8.39087179 L23.0857333,10.2949744 C21.9949786,10.9693333 20.661834,11.2831795 19.2322491,11.2831795 C15.8630289,11.2831795 13.5850792,9.11394872 13.5850792,5.93241026 C13.5850792,3.01651282 15.5964,0.509846154 18.7717082,0.509846154 C21.9949786,0.509846154 23.6917082,2.79958974 23.6917082,5.45087179 C23.6917082,5.83651282 23.6432302,6.24574359 23.5947522,6.55958974 L15.766073,6.55958974 Z" id="Fill-3"></path>
                <path d="M25.2442415,9.35497436 L26.8677384,9.35497436 L26.8677384,2.48574359 L25.2442415,2.48574359 L25.2442415,0.702666667 L28.8553358,0.702666667 L28.8553358,2.50984615 C29.7274239,1.49805128 31.0120906,0.509846154 32.5391472,0.509846154 C33.7516126,0.509846154 34.5757384,0.967794872 35.0842415,1.69087179 C35.2291597,1.90830769 35.3271472,2.14830769 35.3993484,2.41394872 C36.4663799,1.35292308 37.7505308,0.509846154 39.0831597,0.509846154 C40.5859774,0.509846154 41.5075748,1.06420513 41.9923547,2.00420513 C42.2579522,2.5585641 42.4039019,3.23292308 42.4039019,3.98061538 L42.4039019,9.35497436 L44.0279145,9.35497436 L44.0279145,11.090359 L38.7680528,11.090359 L38.7680528,9.35497436 L40.3188327,9.35497436 L40.3188327,4.43805128 C40.3188327,3.95651282 40.2466314,3.57087179 40.1254365,3.25702564 C39.8830465,2.67907692 39.3982667,2.41394872 38.6468579,2.41394872 C37.5803421,2.41394872 36.5870591,3.04061538 35.6654616,3.93241026 L35.6654616,9.35497436 L37.1925182,9.35497436 L37.1925182,11.090359 L32.0301283,11.090359 L32.0301283,9.35497436 L33.5814239,9.35497436 L33.5814239,4.43805128 C33.5814239,3.95651282 33.5329459,3.57087179 33.4122667,3.25702564 C33.145122,2.67907692 32.6850969,2.41394872 31.9336881,2.41394872 C30.8186943,2.41394872 29.8243799,3.08882051 28.9280528,3.95651282 L28.9280528,9.35497436 L30.4551094,9.35497436 L30.4551094,11.090359 L25.2442415,11.090359 L25.2442415,9.35497436 Z" id="Fill-5"></path>
                <path d="M53.8810138,5.90846154 C53.8810138,3.7874359 52.5241459,2.26897436 50.5850264,2.26897436 C48.6221836,2.26897436 47.2642843,3.7874359 47.2642843,5.90846154 C47.2642843,8.02948718 48.6221836,9.52384615 50.5850264,9.52384615 C52.5241459,9.52384615 53.8810138,8.02948718 53.8810138,5.90846154 M45.1317686,5.90846154 C45.1317686,2.99205128 47.2642843,0.51 50.5850264,0.51 C53.9052528,0.51 56.0388,2.96846154 56.0388,5.90846154 C56.0388,8.80076923 53.8810138,11.2828205 50.5850264,11.2828205 C47.2400453,11.2828205 45.1317686,8.82487179 45.1317686,5.90846154" id="Fill-7"></path>
                <path d="M61.1021195,2.51 C62.0954025,1.45 63.4048239,0.51 64.9076415,0.51 C66.2160314,0.51 67.1123585,1.01615385 67.6461321,1.83564103 C67.9859937,2.41410256 68.1793899,3.13717949 68.1793899,4.00435897 L68.1793899,9.35512821 L69.8028868,9.35512821 L69.8028868,11.09 L64.5440566,11.09 L64.5440566,9.35512821 L66.0953522,9.35512821 L66.0953522,4.46230769 C66.0953522,3.95615385 66.0226352,3.54641026 65.8524465,3.23307692 C65.5610629,2.67923077 65.0525597,2.41410256 64.3011509,2.41410256 C63.1619182,2.41410256 62.0711635,3.08897436 61.1748365,3.98025641 L61.1748365,9.35512821 L62.7256164,9.35512821 L62.7256164,11.09 L57.4910252,11.09 L57.4910252,9.35512821 L59.114522,9.35512821 L59.114522,2.48589744 L57.4910252,2.48589744 L57.4910252,0.702820513 L61.1021195,0.702820513 L61.1021195,2.51 Z" id="Fill-9"></path>
                <path d="M0.551720755,32.0117436 C0.551720755,30.9989231 1.1576956,30.3486667 2.00606038,30.3486667 C2.87866415,30.3486667 3.4604,30.9989231 3.4604,31.6743077 C3.4604,32.107641 3.33920503,32.4214872 3.14529308,32.7102051 C3.70278994,33.1927692 4.76930566,33.5543077 6.0534566,33.5543077 C7.9925761,33.5543077 9.22876478,32.6143077 9.22876478,31.0471282 C9.22876478,29.5532821 7.77442516,28.8543077 6.0776956,28.227641 C3.21801006,27.1671282 1.1576956,26.2030256 1.1576956,23.3835385 C1.1576956,20.9009744 3.14529308,19.0450769 6.22364528,19.0450769 C9.01061384,19.0450769 11.1921233,20.5394359 11.1921233,22.2989231 C11.1921233,23.2866154 10.5619094,23.8650769 9.78626164,23.8650769 C8.86517987,23.8650769 8.30768302,23.1907179 8.30768302,22.467641 C8.30768302,22.082 8.42887799,21.8409744 8.57431195,21.6235385 C8.13801006,21.2378974 7.19268931,20.9491795 6.19889057,20.9491795 C4.42995975,20.9491795 3.36344403,21.8891795 3.36344403,23.2148205 C3.36344403,24.7332821 4.79354465,25.3835385 6.61146918,26.0825128 C9.34995975,27.0948205 11.4102742,28.0830256 11.4102742,30.8789231 C11.4102742,33.7712308 9.13180881,35.4825128 6.00497862,35.4825128 C2.87866415,35.4825128 0.551720755,33.7225128 0.551720755,32.0117436" id="Fill-11"></path>
                <path d="M13.5581585,29.9629231 C13.5581585,27.1670256 15.8123849,24.6121538 18.7932654,24.6121538 C21.3868377,24.6121538 23.2774792,26.2993333 23.2774792,27.8901026 C23.2774792,28.806 22.6472654,29.4326667 21.7989006,29.4326667 C21.1202088,29.4326667 20.489995,28.9024103 20.489995,28.1311282 C20.489995,27.7942051 20.6596679,27.4562564 20.9262969,27.2634359 C20.6839069,26.7813846 19.8113031,26.3234359 18.7932654,26.3234359 C17.3874038,26.3234359 15.6669509,27.5044615 15.6669509,30.0111282 C15.6669509,32.1557436 17.2424855,33.6024103 19.3992403,33.6024103 C20.6111899,33.6024103 21.7019447,33.2408718 22.9866113,32.4936923 L22.7926994,34.3972821 C21.7261836,35.0721538 20.489995,35.3854872 19.2053283,35.3854872 C15.9573031,35.3854872 13.5581585,33.1685641 13.5581585,29.9629231" id="Fill-13"></path>
                <path d="M27.1752126,29.1190769 L33.0162943,29.1190769 C32.9198541,27.4565128 31.9013006,26.3236923 30.1323698,26.3236923 C28.7265082,26.3236923 27.4423572,27.2395897 27.1752126,29.1190769 Z M27.1752126,30.661641 C27.4660805,32.6380513 28.9209358,33.6021538 30.9564956,33.6021538 C32.2891245,33.6021538 33.4283572,33.1924103 34.6650616,32.4934359 L34.494873,34.3975385 C33.4041182,35.0718974 32.0714893,35.3857436 30.6413887,35.3857436 C27.2726843,35.3857436 24.9942189,33.2165128 24.9942189,30.0349744 C24.9942189,27.1190769 27.0060553,24.6124103 30.1808478,24.6124103 C33.4041182,24.6124103 35.1013635,26.9021538 35.1013635,29.5534359 C35.1013635,29.9390769 35.0528855,30.3483077 35.0038918,30.661641 L27.1752126,30.661641 Z" id="Fill-15"></path>
                <path d="M40.2637019,26.6130769 C41.2580164,25.5525641 42.5664063,24.6125641 44.0692239,24.6125641 C45.3786453,24.6125641 46.2749723,25.1187179 46.8077145,25.9382051 C47.1475761,26.5166667 47.3420038,27.2397436 47.3420038,28.1069231 L47.3420038,33.4576923 L48.9655006,33.4576923 L48.9655006,35.1925641 L43.705639,35.1925641 L43.705639,33.4576923 L45.2569346,33.4576923 L45.2569346,28.5653846 C45.2569346,28.0587179 45.1842176,27.6494872 45.0150604,27.335641 C44.7236767,26.7812821 44.2151736,26.5166667 43.4637648,26.5166667 C42.3245321,26.5166667 41.2337774,27.1910256 40.3374503,28.0828205 L40.3374503,33.4576923 L41.8882302,33.4576923 L41.8882302,35.1925641 L36.6526075,35.1925641 L36.6526075,33.4576923 L38.2761044,33.4576923 L38.2761044,26.5884615 L36.6526075,26.5884615 L36.6526075,24.8053846 L40.2637019,24.8053846 L40.2637019,26.6130769 Z" id="Fill-17"></path>
                <path d="M51.578361,34.0840513 C51.3849648,33.6743077 51.2642855,33.1440513 51.2642855,32.5655897 L51.2642855,26.5886667 L49.300927,26.5886667 L49.300927,24.8050769 L51.2642855,24.8050769 L51.2642855,22.4194359 L53.3483233,21.5753333 L53.3483233,24.8050769 L56.5231157,24.8050769 L56.5231157,26.5886667 L53.3483233,26.5886667 L53.3483233,32.2040513 C53.3483233,32.5414872 53.3962855,32.7830256 53.4932415,32.9999487 C53.6876692,33.3368718 54.0754931,33.5055897 54.6809522,33.5055897 C55.311166,33.5055897 56.0625748,33.2168718 56.6690654,32.9271282 L56.4503987,34.7830256 C55.8439082,35.0968718 55.0687761,35.3855897 54.0997321,35.3855897 C52.9362604,35.3855897 52.0399333,34.9758462 51.578361,34.0840513" id="Fill-19"></path>
                <path d="M60.1713937,29.1190769 L66.0124755,29.1190769 C65.9160352,27.4565128 64.8974818,26.3236923 63.1285509,26.3236923 C61.7226893,26.3236923 60.4385384,27.2395897 60.1713937,29.1190769 Z M60.1713937,30.661641 C60.4622616,32.6380513 61.917117,33.6021538 63.9526767,33.6021538 C65.2853057,33.6021538 66.4245384,33.1924103 67.6612428,32.4934359 L67.4910541,34.3975385 C66.4002994,35.0718974 65.0676704,35.3857436 63.6375698,35.3857436 C60.2688654,35.3857436 57.9904,33.2165128 57.9904,30.0349744 C57.9904,27.1190769 60.0022365,24.6124103 63.1770289,24.6124103 C66.4002994,24.6124103 68.0975447,26.9021538 68.0975447,29.5534359 C68.0975447,29.9390769 68.0490667,30.3483077 68.000073,30.661641 L60.1713937,30.661641 Z" id="Fill-21"></path>
                <path d="M78.1129421,32.2526154 L78.1129421,27.4326154 C77.3615333,26.8541538 76.4652063,26.4197949 75.2532566,26.4197949 C73.4595711,26.4197949 72.0774327,27.8418462 72.0531937,30.0351795 C72.0531937,32.2038974 73.4353321,33.5782564 75.2037472,33.5782564 C76.3914579,33.5782564 77.3372943,33.0238974 78.1129421,32.2526154 M69.920678,30.0592821 C69.920678,27.0946667 72.0289547,24.6126154 75.0103509,24.6126154 C76.3187409,24.6126154 77.4100113,25.0941538 78.1129421,25.7454359 L78.1129421,19.3346667 L76.3187409,19.3346667 L76.3187409,17.5505641 L80.1969799,17.5505641 L80.1969799,33.4577436 L81.8204767,33.4577436 L81.8204767,35.1926154 L78.1371811,35.1926154 L78.1371811,33.8669744 C77.3130553,34.7351795 76.2707786,35.3854359 74.8159233,35.3854359 C72.0531937,35.3854359 69.920678,33.2167179 69.920678,30.0592821" id="Fill-23"></path>
                <polygon id="Fill-25" points="3.75106164 57.3432308 5.83561509 57.3432308 5.83561509 45.3170769 2.27248302 45.3170769 2.27248302 47.8473333 0.18792956 47.8473333 0.18792956 43.4370769 13.6885333 43.4370769 13.6885333 47.8473333 11.6039799 47.8473333 11.6039799 45.3170769 8.04136352 45.3170769 8.04136352 57.3432308 10.1254013 57.3432308 10.1254013 59.2955385 3.75106164 59.2955385"></polygon>
                <path d="M15.4052214,53.221641 L21.2463031,53.221641 C21.1493472,51.5590769 20.1318252,50.4262564 18.3623786,50.4262564 C16.956517,50.4262564 15.6718503,51.3421538 15.4052214,53.221641 Z M15.4052214,54.7642051 C15.6960893,56.7406154 17.1504289,57.7047179 19.1865044,57.7047179 C20.5196491,57.7047179 21.658366,57.2949744 22.8945547,56.596 L22.7248818,58.5001026 C21.634127,59.1744615 20.3014981,59.4883077 18.8713975,59.4883077 C15.5021774,59.4883077 13.2237119,57.3190769 13.2237119,54.1375385 C13.2237119,51.221641 15.2355484,48.7149744 18.4108566,48.7149744 C21.634127,48.7149744 23.3308566,51.0047179 23.3308566,53.656 C23.3308566,54.041641 23.2823786,54.4508718 23.2339006,54.7642051 L15.4052214,54.7642051 Z" id="Fill-27"></path>
                <path d="M32.0090868,56.6922051 L32.0090868,55.0055385 C31.306156,54.8127179 30.4093132,54.644 29.4634767,54.644 C27.9848981,54.644 27.1612881,55.3429744 27.1612881,56.3552821 C27.1612881,57.2952821 27.8642189,57.9214359 29.0761686,57.9214359 C30.1911623,57.9214359 31.2092,57.3911795 32.0090868,56.6922051 M25.0530113,56.524 C25.0530113,54.6198974 26.7492252,53.3906667 29.1483698,53.3906667 C30.2391245,53.3906667 31.4510742,53.6316923 32.0090868,53.8004103 L32.0090868,52.6193846 C32.0090868,52.0168205 31.8388981,51.5347692 31.5485459,51.1732308 C31.1117283,50.6429744 30.3855899,50.3778462 29.3670365,50.3778462 C28.7120679,50.3778462 28.324244,50.5224615 28.0091371,50.6911795 C28.0828855,50.8598974 28.1308478,51.0768205 28.1308478,51.269641 C28.1308478,51.9445128 27.6213132,52.4506667 26.9194138,52.4506667 C26.192244,52.4506667 25.6821937,51.9445128 25.6821937,51.2214359 C25.6821937,49.9927179 27.0400931,48.7147692 29.7063824,48.7147692 C31.330395,48.7147692 32.5175899,49.1973333 33.2210365,50.0163077 C33.7537786,50.6429744 34.0204075,51.4624615 34.0204075,52.4024615 L34.0204075,57.5598974 L35.6444201,57.5598974 L35.6444201,59.2952821 L32.0575648,59.2952821 L32.0575648,58.0424615 C31.2092,58.8378462 29.8755396,59.4881026 28.4707094,59.4881026 C26.5558289,59.4881026 25.0530113,58.4034872 25.0530113,56.524" id="Fill-29"></path>
            </g>
        </g>
    </g>
</svg>