<?xml version="1.0" encoding="UTF-8"?>
<svg width="115px" height="115px" viewBox="0 0 115 115" version="1.1" xmlns="http://www.w3.org/2000/svg" xmlns:xlink="http://www.w3.org/1999/xlink">
    <!-- Generator: Sketch 49.3 (51167) - http://www.bohemiancoding.com/sketch -->
    <title>LST_logo</title>
    <desc>Created with Sketch.</desc>
    <defs></defs>
    <g id="LST_logo" stroke="none" stroke-width="1" fill="none" fill-rule="evenodd">
        <g id="Logo" transform="translate(57.500000, 57.500000) rotate(-360.000000) translate(-57.500000, -57.500000) ">
            <polygon id="Fill-1" fill="#A39161" points="0 115 115 115 115 0 0 0"></polygon>
            <polygon id="Fill-2" fill="#FEFEFE" points="10.9051724 28.9020538 12.777476 28.9020538 12.777476 17.6922929 10.9051724 17.6922929 10.9051724 15.862069 16.9896611 15.862069 16.9896611 17.6922929 14.9072213 17.6922929 14.9072213 28.9246551 19.7747126 28.9246551 19.7747126 26.7323296 21.8103448 26.7323296 21.8103448 30.7327586 10.9051724 30.7327586"></polygon>
            <g id="Group-31" transform="translate(9.913793, 19.827586)" fill="#FEFEFE">
                <path d="M15.2489352,4.80798291 L20.8984255,4.80798291 C20.8046498,3.21420085 19.8205031,2.1285812 18.1085968,2.1285812 C16.7493472,2.1285812 15.5068185,3.00631624 15.2489352,4.80798291 Z M15.2489352,6.2862735 C15.5302624,8.17984188 16.9368987,9.1037735 18.9061895,9.1037735 C20.1956062,9.1037735 21.2969725,8.71061111 22.4926133,8.04125214 L22.3285057,9.86601709 C21.2735285,10.5122778 19.9841119,10.813047 18.6014183,10.813047 C15.3427109,10.813047 13.1394795,8.73420085 13.1394795,5.6852265 C13.1394795,2.89082479 15.0848276,0.488602564 18.1559835,0.488602564 C21.2735285,0.488602564 22.9146042,2.68294017 22.9146042,5.22375214 C22.9146042,5.59332479 22.8677163,5.98550427 22.8208285,6.2862735 L15.2489352,6.2862735 Z" id="Fill-3"></path>
                <path d="M24.4162134,8.96518376 L25.9864585,8.96518376 L25.9864585,2.38217094 L24.4162134,2.38217094 L24.4162134,0.673388889 L27.9088614,0.673388889 L27.9088614,2.40526923 C28.7523444,1.43563248 29.9948731,0.488602564 31.4718412,0.488602564 C32.644537,0.488602564 33.4416309,0.927470085 33.9334548,1.6204188 C34.0736196,1.82879487 34.168393,2.05879487 34.238226,2.31336752 C35.2702581,1.29655128 36.512288,0.488602564 37.8012058,0.488602564 C39.25473,0.488602564 40.1460985,1.01986325 40.6149772,1.92069658 C40.8718629,2.45195726 41.0130254,3.09821795 41.0130254,3.81475641 L41.0130254,8.96518376 L42.5837692,8.96518376 L42.5837692,10.6282607 L37.4964346,10.6282607 L37.4964346,8.96518376 L38.9963479,8.96518376 L38.9963479,4.25313248 C38.9963479,3.79165812 38.9265149,3.42208547 38.8092952,3.12131624 C38.5748558,2.56744872 38.105977,2.31336752 37.3792149,2.31336752 C36.3476816,2.31336752 35.386979,2.91392308 34.4956105,3.76855983 L34.4956105,8.96518376 L35.9725786,8.96518376 L35.9725786,10.6282607 L30.9795185,10.6282607 L30.9795185,8.96518376 L32.4799306,8.96518376 L32.4799306,4.25313248 C32.4799306,3.79165812 32.4330427,3.42208547 32.3163218,3.12131624 C32.0579397,2.56744872 31.6130037,2.31336752 30.8862416,2.31336752 C29.8078204,2.31336752 28.8461201,2.96011966 27.9791932,3.79165812 L27.9791932,8.96518376 L29.4561614,8.96518376 L29.4561614,10.6282607 L24.4162134,10.6282607 L24.4162134,8.96518376 Z" id="Fill-5"></path>
                <path d="M52.1136803,5.66227564 C52.1136803,3.62962607 50.8013186,2.17443376 48.9258035,2.17443376 C47.0273433,2.17443376 45.713984,3.62962607 45.713984,5.66227564 C45.713984,7.69492521 47.0273433,9.12701923 48.9258035,9.12701923 C50.8013186,9.12701923 52.1136803,7.69492521 52.1136803,5.66227564 M43.6514162,5.66227564 C43.6514162,2.86738248 45.713984,0.48875 48.9258035,0.48875 C52.1371243,0.48875 54.2006897,2.84477564 54.2006897,5.66227564 C54.2006897,8.43407051 52.1136803,10.812703 48.9258035,10.812703 C45.69054,10.812703 43.6514162,8.4571688 43.6514162,5.66227564" id="Fill-7"></path>
                <path d="M59.0979289,2.40541667 C60.0586315,1.38958333 61.325103,0.48875 62.7786272,0.48875 C64.0441011,0.48875 64.911028,0.973814103 65.4272934,1.75915598 C65.7560074,2.31351496 65.9430601,3.00646368 65.9430601,3.83751068 L65.9430601,8.9653312 L67.5133051,8.9653312 L67.5133051,10.6279167 L62.4269681,10.6279167 L62.4269681,8.9653312 L63.9273802,8.9653312 L63.9273802,4.27637821 C63.9273802,3.7913141 63.8570484,3.39864316 63.692442,3.09836538 C63.4106159,2.56759615 62.918792,2.31351496 62.1920299,2.31351496 C61.0901648,2.31351496 60.0351876,2.96026709 59.1682607,3.81441239 L59.1682607,8.9653312 L60.6681739,8.9653312 L60.6681739,10.6279167 L55.6052809,10.6279167 L55.6052809,8.9653312 L57.1755259,8.9653312 L57.1755259,2.38231838 L55.6052809,2.38231838 L55.6052809,0.673536325 L59.0979289,0.673536325 L59.0979289,2.40541667 Z" id="Fill-9"></path>
                <path d="M0.533623943,30.6779209 C0.533623943,29.7073013 1.1197224,29.0841389 1.94026025,29.0841389 C2.78424203,29.0841389 3.34689655,29.7073013 3.34689655,30.3545449 C3.34689655,30.7698226 3.22967686,31.0705919 3.04212535,31.3472799 C3.58133594,31.8097372 4.61286923,32.1562115 5.85489915,32.1562115 C7.73041423,32.1562115 8.92605509,31.2553782 8.92605509,29.7534979 C8.92605509,28.3218953 7.51941878,27.6520449 5.87834309,27.0514893 C3.11245717,26.0351645 1.1197224,25.1112329 1.1197224,22.4092244 C1.1197224,20.0301004 3.04212535,18.2515321 6.01950553,18.2515321 C8.71505964,18.2515321 10.8250141,19.6836261 10.8250141,21.3698013 C10.8250141,22.3163397 10.2154717,22.8706987 9.46526567,22.8706987 C8.57439601,22.8706987 8.03518543,22.224438 8.03518543,21.5314893 C8.03518543,21.1619167 8.15240512,20.9309338 8.29306875,20.7225577 C7.87107786,20.352985 6.95676426,20.076297 5.99556278,20.076297 C4.28465409,20.076297 3.2531208,20.9771303 3.2531208,22.2475363 C3.2531208,23.7027286 4.63631316,24.325891 6.39460854,24.9957415 C9.04327478,25.9658697 11.0360095,26.9128996 11.0360095,29.5923013 C11.0360095,32.3640962 8.83227933,34.0040748 5.80801128,34.0040748 C2.78424203,34.0040748 0.533623943,32.3174081 0.533623943,30.6779209" id="Fill-11"></path>
                <path d="M13.1134418,28.7144679 C13.1134418,26.0350662 15.293728,23.5866474 18.1768337,23.5866474 C20.6853351,23.5866474 22.5139623,25.2035278 22.5139623,26.728015 C22.5139623,27.60575 21.9044199,28.2063056 21.083882,28.2063056 C20.4274517,28.2063056 19.8179093,27.6981432 19.8179093,26.9589979 C19.8179093,26.6361132 19.9820169,26.3122457 20.2399002,26.1274594 C20.0054609,25.6654936 19.1614791,25.2266261 18.1768337,25.2266261 C16.8170852,25.2266261 15.1530644,26.3584423 15.1530644,28.7606645 C15.1530644,30.8159209 16.6769204,32.2023098 18.7629321,32.2023098 C19.935129,32.2023098 20.9901063,31.8558355 22.232635,31.1397885 L22.0450835,32.964062 C21.0135502,33.6108141 19.8179093,33.9110919 18.5753806,33.9110919 C15.4338929,33.9110919 13.1134418,31.7865406 13.1134418,28.7144679" id="Fill-13"></path>
                <path d="M26.2838473,27.9057821 L31.9333377,27.9057821 C31.8400607,26.3124915 30.8549165,25.2268718 29.1440078,25.2268718 C27.7842594,25.2268718 26.5422295,26.1046068 26.2838473,27.9057821 Z M26.2838473,29.3840726 C26.5651746,31.2781325 27.9723097,32.2020641 29.9411017,32.2020641 C31.2300195,32.2020641 32.3318846,31.8093932 33.5280243,31.1395427 L33.3634179,32.9643077 C32.3084407,33.6105684 31.0195229,33.9113376 29.6363305,33.9113376 C26.3781219,33.9113376 24.1743917,31.8324915 24.1743917,28.7835171 C24.1743917,25.9891154 26.1202386,23.5868932 29.1908957,23.5868932 C32.3084407,23.5868932 33.9500152,25.7812308 33.9500152,28.3220427 C33.9500152,28.6916154 33.9031273,29.0837949 33.8557406,29.3840726 L26.2838473,29.3840726 Z" id="Fill-15"></path>
                <path d="M38.9430254,25.5041987 C39.9047257,24.4878739 41.1701995,23.5870406 42.6237237,23.5870406 C43.8901952,23.5870406 44.7571221,24.0721047 45.2723899,24.8574466 C45.6011039,25.4118056 45.7891542,26.1047543 45.7891542,26.9358013 L45.7891542,32.0636218 L47.3593993,32.0636218 L47.3593993,33.7262073 L42.2720646,33.7262073 L42.2720646,32.0636218 L43.7724767,32.0636218 L43.7724767,27.3751603 C43.7724767,26.8896047 43.7021449,26.4974252 43.5385361,26.196656 C43.25671,25.6653953 42.7648861,25.4118056 42.0381241,25.4118056 C40.9362589,25.4118056 39.8812817,26.0580662 39.0143548,26.912703 L39.0143548,32.0636218 L40.5142681,32.0636218 L40.5142681,33.7262073 L35.4503774,33.7262073 L35.4503774,32.0636218 L37.0206224,32.0636218 L37.0206224,25.480609 L35.4503774,25.480609 L35.4503774,23.7718269 L38.9430254,23.7718269 L38.9430254,25.5041987 Z" id="Fill-17"></path>
                <path d="M49.8865561,32.6638825 C49.6995034,32.2712115 49.5827825,31.7630491 49.5827825,31.2086902 L49.5827825,25.4808056 L47.6838235,25.4808056 L47.6838235,23.7715321 L49.5827825,23.7715321 L49.5827825,21.4852927 L51.5984624,20.6763611 L51.5984624,23.7715321 L54.6691195,23.7715321 L54.6691195,25.4808056 L51.5984624,25.4808056 L51.5984624,30.8622158 C51.5984624,31.1855919 51.6448514,31.4170662 51.7386272,31.6249509 C51.9266775,31.9478355 52.3017805,32.1095235 52.8873802,32.1095235 C53.4969226,32.1095235 54.2236847,31.8328355 54.8102819,31.5551645 L54.5987877,33.3337329 C54.0121904,33.6345021 53.2624832,33.9111902 52.3252245,33.9111902 C51.1999154,33.9111902 50.3329885,33.5185192 49.8865561,32.6638825" id="Fill-19"></path>
                <path d="M58.1977315,27.9057821 L63.8472219,27.9057821 C63.7539449,26.3124915 62.7688007,25.2268718 61.057892,25.2268718 C59.6981436,25.2268718 58.4561136,26.1046068 58.1977315,27.9057821 Z M58.1977315,29.3840726 C58.4790588,31.2781325 59.8861939,32.2020641 61.8549859,32.2020641 C63.1439037,32.2020641 64.2457688,31.8093932 65.4419085,31.1395427 L65.2773021,32.9643077 C64.2223249,33.6105684 62.9334071,33.9113376 61.5502147,33.9113376 C58.2920061,33.9113376 56.0882759,31.8324915 56.0882759,28.7835171 C56.0882759,25.9891154 58.0341227,23.5868932 61.1047799,23.5868932 C64.2223249,23.5868932 65.8638994,25.7812308 65.8638994,28.3220427 C65.8638994,28.6916154 65.8170115,29.0837949 65.7696248,29.3840726 L58.1977315,29.3840726 Z" id="Fill-21"></path>
                <path d="M75.5507851,30.9087564 L75.5507851,26.2895897 C74.824023,25.7352308 73.9570961,25.3189701 72.7848992,25.3189701 C71.0500477,25.3189701 69.7132444,26.6817692 69.6898005,28.7837137 C69.6898005,30.8620684 71.0266038,32.1791624 72.7370137,32.1791624 C73.8857666,32.1791624 74.8005791,31.6479017 75.5507851,30.9087564 M67.6272327,28.806812 C67.6272327,25.9657222 69.6663565,23.5870897 72.549961,23.5870897 C73.8154348,23.5870897 74.8709109,24.0485641 75.5507851,24.6727094 L75.5507851,18.5290556 L73.8154348,18.5290556 L73.8154348,16.8192906 L77.566465,16.8192906 L77.566465,32.0636709 L79.13671,32.0636709 L79.13671,33.7262564 L75.574229,33.7262564 L75.574229,32.4558504 C74.7771351,33.2878803 73.7690458,33.9110427 72.3619106,33.9110427 C69.6898005,33.9110427 67.6272327,31.832688 67.6272327,28.806812" id="Fill-23"></path>
                <polygon id="Fill-25" points="3.62802429 54.9539295 5.64420299 54.9539295 5.64420299 43.4288654 2.19794405 43.4288654 2.19794405 45.8536944 0.181765344 45.8536944 0.181765344 41.6271987 13.2395402 41.6271987 13.2395402 45.8536944 11.2233615 45.8536944 11.2233615 43.4288654 7.77760139 43.4288654 7.77760139 54.9539295 9.79328128 54.9539295 9.79328128 56.824891 3.62802429 56.824891"></polygon>
                <path d="M14.8999198,51.0040726 L20.5494101,51.0040726 C20.4556344,49.4107821 19.4714877,48.3251624 17.7600802,48.3251624 C16.4003318,48.3251624 15.1578031,49.2028974 14.8999198,51.0040726 Z M14.8999198,52.4823632 C15.181247,54.3764231 16.5878833,55.3003547 18.5571741,55.3003547 C19.8465908,55.3003547 20.9479571,54.9076838 22.1435979,54.2378333 L21.9794903,56.0625983 C20.9245131,56.708859 19.6355953,57.0096282 18.2524029,57.0096282 C14.9936955,57.0096282 12.7899653,54.9307821 12.7899653,51.8818077 C12.7899653,49.087406 14.7358122,46.6851838 17.8069681,46.6851838 C20.9245131,46.6851838 22.5655888,48.8795214 22.5655888,51.4203333 C22.5655888,51.789906 22.5187009,52.1820855 22.4718131,52.4823632 L14.8999198,52.4823632 Z" id="Fill-27"></path>
                <path d="M30.9591672,54.3300299 L30.9591672,52.713641 C30.279293,52.5288547 29.4118673,52.3671667 28.4970549,52.3671667 C27.0669746,52.3671667 26.2703795,53.0370171 26.2703795,54.0071453 C26.2703795,54.9079786 26.9502537,55.5080427 28.1224507,55.5080427 C29.2008718,55.5080427 30.1855172,54.9998803 30.9591672,54.3300299 M24.2312557,54.1688333 C24.2312557,52.3440684 25.8718326,51.1660556 28.1922837,51.1660556 C29.2472609,51.1660556 30.4194578,51.3970385 30.9591672,51.5587265 L30.9591672,50.4269103 C30.9591672,49.849453 30.7945608,49.3874872 30.5137324,49.0410128 C30.0912427,48.5328504 29.3889221,48.2787692 28.4037779,48.2787692 C27.7702928,48.2787692 27.3951898,48.417359 27.0904186,48.579047 C27.161748,48.740735 27.2081371,48.9486197 27.2081371,49.133406 C27.2081371,49.7801581 26.7153155,50.2652222 26.036439,50.2652222 C25.3331208,50.2652222 24.8398005,49.7801581 24.8398005,49.0872094 C24.8398005,47.909688 26.1531598,46.6849872 28.7319931,46.6849872 C30.3027369,46.6849872 31.4509911,47.1474444 32.1313641,47.9322949 C32.646632,48.5328504 32.9045153,49.3181923 32.9045153,50.2190256 L32.9045153,55.1615684 L34.4752592,55.1615684 L34.4752592,56.8246453 L31.0060551,56.8246453 L31.0060551,55.6240256 C30.1855172,56.3862692 28.8956018,57.0094316 27.536851,57.0094316 C25.6847799,57.0094316 24.2312557,55.9700085 24.2312557,54.1688333" id="Fill-29"></path>
            </g>
        </g>
    </g>
</svg>